<svg width="424" height="45" viewBox="0 0 424 45" fill="none" xmlns="http://www.w3.org/2000/svg">
<g clip-path="url(#clip0)">
<path d="M47.7997 43C36.2997 44.6 25.2997 44.5 16.7997 42.9C12.4997 42 8.99967 40.8 6.39967 39.2C2.49967 36.8 1.39967 34.1 1.09967 32.2C0.69967 29.4 1.69967 25.1 8.59967 20.4C13.3997 17.2 20.0997 14.3 28.0997 12.1C29.3997 11.7 30.7997 12.5 31.1997 13.9C31.5997 15.2 30.7997 16.6 29.3997 17C13.5997 21.4 5.59967 27.7 6.09967 31.5C6.79967 36.5 22.6997 41.4 47.0997 38C62.9997 35.8 77.4997 31.3 86.8997 25.8C88.0997 25.1 89.5997 25.5 90.3997 26.7C91.0997 27.9 90.6997 29.4 89.4997 30.2C79.4997 36 64.2997 40.7 47.7997 43Z" fill="#424F60"/>
<path d="M45.4999 26.4001C44.0999 26.6001 42.7999 25.6001 42.6999 24.2001C42.5999 22.8001 43.4999 21.5001 44.8999 21.4001C52.5999 20.3001 59.5999 18.3001 64.7999 15.7001C69.3999 13.3001 71.2999 11.1001 71.1999 9.80006C71.0999 8.50006 68.5999 6.90006 63.4999 5.90006C57.8999 4.80006 50.4999 4.80006 42.7999 5.80006L40.2999 6.10006C25.7999 8.40006 12.6999 12.5001 3.79991 17.5001C2.59991 18.2001 0.999912 17.8001 0.399912 16.5001C-0.300088 15.3001 0.0999124 13.7001 1.39991 13.1001C11.1999 7.50006 26.0999 3.00006 41.9999 0.800059L44.4999 0.500059V0.60006C51.7999 -0.199941 58.7999 -0.0999405 64.2999 1.00006C73.2999 2.80006 75.6999 6.40006 75.9999 9.20006C76.3999 12.0001 75.0999 16.1001 66.8999 20.3001C61.3999 23.0001 53.7999 25.2001 45.4999 26.4001Z" fill="#424F60"/>
<path d="M99.217 21.257C101.296 20.9689 102.747 19.0501 102.459 16.9714C102.171 14.8927 100.252 13.4411 98.1736 13.7292C96.0948 14.0174 94.6433 15.9361 94.9314 18.0149C95.2196 20.0936 97.1383 21.5452 99.217 21.257Z" fill="#424F60"/>
<path d="M46.2025 31.3081C51.3994 30.5877 55.0283 25.7909 54.3079 20.594C53.5876 15.3972 48.7907 11.7682 43.5938 12.4886C38.397 13.209 34.7681 18.0059 35.4884 23.2027C36.2088 28.3996 41.0057 32.0285 46.2025 31.3081Z" fill="#424F60"/>
<path d="M170 14.6008C169.2 16.0008 168 17.2008 166.4 18.0008C164.8 18.9008 162.6 19.3008 160.1 19.3008H154.4V32.0008H149.3V0.800781H160C162.4 0.800781 164.4 1.20078 166.1 2.00078C167.8 2.80078 169 3.90078 169.8 5.40078C170.6 6.80078 171 8.40078 171 10.1008C171.1 11.7008 170.7 13.2008 170 14.6008ZM164.4 13.8008C165.4 12.9008 165.8 11.7008 165.8 10.0008C165.8 6.60078 163.9 4.90078 160 4.90078H154.3V15.1008H160C162 15.2008 163.4 14.7008 164.4 13.8008Z" fill="#424F60"/>
<path d="M202.6 0.800781V23.3008C202.6 26.1008 201.8 28.3008 200.1 29.9008C198.4 31.5008 196.2 32.3008 193.4 32.3008C190.6 32.3008 188.4 31.5008 186.7 29.9008C185 28.3008 184.2 26.1008 184.2 23.3008H189.4C189.4 24.7008 189.8 25.8008 190.5 26.6008C191.2 27.4008 192.2 27.8008 193.5 27.8008C194.8 27.8008 195.8 27.4008 196.5 26.6008C197.2 25.8008 197.5 24.7008 197.5 23.3008V0.800781H202.6Z" fill="#424F60"/>
<path d="M239.4 2.70078C241.9 4.00078 243.8 5.80078 245.2 8.20078C246.6 10.6008 247.2 13.4008 247.2 16.5008C247.2 19.7008 246.5 22.4008 245.2 24.8008C243.8 27.1008 241.9 28.9008 239.4 30.2008C236.9 31.4008 234 32.1008 230.6 32.1008H220.4V0.800781H230.6C234 0.800781 236.9 1.40078 239.4 2.70078ZM239.1 24.9008C241.1 22.9008 242 20.1008 242 16.5008C242 12.9008 241 10.0008 239.1 8.00078C237.2 6.00078 234.3 5.00078 230.7 5.00078H225.6V27.9008H230.7C234.3 27.9008 237.1 26.9008 239.1 24.9008Z" fill="#424F60"/>
<path d="M267 4.9002V14.1002H277.8V18.3002H267V27.9002H279.2V32.0002H261.9V0.700195H279.2V4.9002H267Z" fill="#424F60"/>
<path d="M299.7 31.3004C298 30.6004 296.7 29.5004 295.7 28.2004C294.7 26.9004 294.3 25.3004 294.3 23.5004H299.8C299.9 24.9004 300.5 26.0004 301.4 26.8004C302.3 27.7004 303.7 28.1004 305.4 28.1004C307.2 28.1004 308.6 27.7004 309.5 26.8004C310.5 25.9004 311 24.8004 311 23.5004C311 22.5004 310.7 21.6004 310.1 20.9004C309.5 20.2004 308.7 19.7004 307.8 19.4004C306.9 19.0004 305.6 18.6004 304 18.2004C302 17.7004 300.3 17.1004 299 16.6004C297.7 16.0004 296.6 15.2004 295.7 14.0004C294.8 12.8004 294.4 11.3004 294.4 9.30039C294.4 7.50039 294.9 5.90039 295.7 4.60039C296.6 3.20039 297.9 2.20039 299.5 1.50039C301.1 0.800391 303 0.400391 305.1 0.400391C308.1 0.400391 310.6 1.20039 312.5 2.70039C314.4 4.20039 315.5 6.30039 315.7 8.90039H310C309.9 7.80039 309.4 6.80039 308.4 6.00039C307.4 5.20039 306.1 4.80039 304.5 4.80039C303 4.80039 301.8 5.20039 300.9 5.90039C300 6.70039 299.5 7.70039 299.5 9.10039C299.5 10.1004 299.8 10.8004 300.4 11.5004C301 12.1004 301.7 12.6004 302.6 13.0004C303.5 13.4004 304.7 13.8004 306.3 14.2004C308.4 14.8004 310.1 15.3004 311.4 15.9004C312.7 16.5004 313.8 17.3004 314.7 18.5004C315.6 19.7004 316.1 21.3004 316.1 23.2004C316.1 24.8004 315.7 26.3004 314.8 27.7004C313.9 29.1004 312.7 30.2004 311.1 31.1004C309.5 32.0004 307.5 32.4004 305.3 32.4004C303.2 32.4004 301.3 32.0004 299.7 31.3004Z" fill="#424F60"/>
<path d="M336.9 0.800781V32.0008H331.8V0.800781H336.9Z" fill="#424F60"/>
<path d="M375.8 9.8002C375 8.2002 373.9 7.1002 372.4 6.3002C371 5.5002 369.3 5.1002 367.4 5.1002C365.3 5.1002 363.5 5.6002 361.9 6.5002C360.3 7.4002 359 8.8002 358.1 10.5002C357.2 12.2002 356.7 14.2002 356.7 16.4002C356.7 18.6002 357.2 20.6002 358.1 22.4002C359 24.1002 360.3 25.5002 361.9 26.4002C363.5 27.3002 365.4 27.8002 367.4 27.8002C370.2 27.8002 372.5 27.0002 374.2 25.5002C375.9 23.9002 377 21.8002 377.4 19.2002H365.7V15.1002H382.9V19.1002C382.6 21.5002 381.7 23.8002 380.3 25.8002C378.9 27.8002 377.1 29.5002 374.9 30.7002C372.7 31.9002 370.2 32.5002 367.5 32.5002C364.6 32.5002 361.9 31.8002 359.4 30.5002C356.9 29.2002 355 27.2002 353.6 24.8002C352.2 22.4002 351.5 19.6002 351.5 16.6002C351.5 13.5002 352.2 10.8002 353.6 8.4002C355 6.0002 357 4.1002 359.4 2.7002C361.8 1.3002 364.5 0.700195 367.4 0.700195C370.7 0.700195 373.7 1.5002 376.3 3.2002C378.9 4.8002 380.8 7.2002 381.9 10.2002H375.8V9.8002Z" fill="#424F60"/>
<path d="M423.2 32.0002H418.1L402.6 8.7002V32.0002H397.5V0.700195H402.6L418.1 24.0002V0.700195H423.2V32.0002V32.0002Z" fill="#424F60"/>
</g>
<defs>
<clipPath id="clip0">
<rect width="423.2" height="44.1" fill="white"/>
</clipPath>
</defs>
</svg>
