<?xml version="1.0" encoding="utf-8"?>
<!-- Generator: Adobe Illustrator 23.0.1, SVG Export Plug-In . SVG Version: 6.00 Build 0)  -->
<svg version="1.1" id="Layer_1" xmlns="http://www.w3.org/2000/svg" xmlns:xlink="http://www.w3.org/1999/xlink" x="0px" y="0px"
	 viewBox="0 0 2216 1053" style="enable-background:new 0 0 2216 1053;" xml:space="preserve">
<style type="text/css">
	.st0{fill:url(#SVGID_1_);}
	.st1{fill:#C4C4C4;}
</style>
<radialGradient id="SVGID_1_" cx="0.9531" cy="1081.3195" r="1" gradientTransform="matrix(720.999 -1217.9974 -1589.2482 -940.7625 1718435.75 1019692.1875)" gradientUnits="userSpaceOnUse">
	<stop  offset="0" style="stop-color:#E4665C"/>
	<stop  offset="1" style="stop-color:#003041"/>
</radialGradient>
<path class="st0" d="M341.5,214C341.5,3.6,215,0-1.5,0H2216v1048H1178c-160.5,0-341,52.5-341-197s-49-317-177-317
	S341.5,477,341.5,214z"/>
<circle class="st1" cx="478.5" cy="164" r="2.5"/>
<circle class="st1" cx="374.5" cy="203" r="2.5"/>
<circle class="st1" cx="445.5" cy="231" r="2.5"/>
<circle class="st1" cx="608.5" cy="161" r="2.5"/>
<circle class="st1" cx="565.5" cy="213" r="2.5"/>
<circle class="st1" cx="652.5" cy="221" r="2.5"/>
<circle class="st1" cx="742.5" cy="154" r="2.5"/>
<circle class="st1" cx="455.5" cy="385" r="2.5"/>
<circle class="st1" cx="691.5" cy="329" r="2.5"/>
<circle class="st1" cx="644.5" cy="314" r="2.5"/>
<circle class="st1" cx="911.5" cy="406" r="2.5"/>
<circle class="st1" cx="707.5" cy="440" r="2.5"/>
<circle class="st1" cx="841.5" cy="385" r="2.5"/>
<circle class="st1" cx="1023.5" cy="462" r="2.5"/>
<circle class="st1" cx="1086.5" cy="582" r="2.5"/>
<circle class="st1" cx="935.5" cy="529" r="2.5"/>
<circle class="st1" cx="957.5" cy="717" r="2.5"/>
<circle class="st1" cx="1160.5" cy="650" r="2.5"/>
<circle class="st1" cx="967.5" cy="831" r="2.5"/>
<circle class="st1" cx="1101.5" cy="416" r="2.5"/>
<circle class="st1" cx="967.5" cy="347" r="2.5"/>
<circle class="st1" cx="1199.5" cy="362" r="2.5"/>
<circle class="st1" cx="1164.5" cy="292" r="2.5"/>
<circle class="st1" cx="1231.5" cy="299" r="2.5"/>
<circle class="st1" cx="1255.5" cy="404" r="2.5"/>
<circle class="st1" cx="1199.5" cy="443" r="2.5"/>
<circle class="st1" cx="1318.5" cy="444" r="2.5"/>
<circle class="st1" cx="1383.5" cy="442" r="2.5"/>
<circle class="st1" cx="1260.5" cy="499" r="2.5"/>
<circle class="st1" cx="1262.5" cy="222" r="2.5"/>
<circle class="st1" cx="1215.5" cy="236" r="2.5"/>
<circle class="st1" cx="1144.5" cy="180" r="2.5"/>
<circle class="st1" cx="1041.5" cy="211" r="2.5"/>
<circle class="st1" cx="1002.5" cy="188" r="2.5"/>
<circle class="st1" cx="890.5" cy="237" r="2.5"/>
<circle class="st1" cx="962.5" cy="242" r="2.5"/>
<circle class="st1" cx="668.5" cy="163" r="2.5"/>
<circle class="st1" cx="933.5" cy="182" r="2.5"/>
<circle class="st1" cx="1233.5" cy="188" r="2.5"/>
<circle class="st1" cx="1276.5" cy="165" r="2.5"/>
<circle class="st1" cx="865.5" cy="175" r="2.5"/>
<circle class="st1" cx="1090.5" cy="169" r="2.5"/>
<circle class="st1" cx="1341" cy="498.5" r="2.5"/>
<circle class="st1" cx="1404" cy="374.5" r="2.5"/>
<circle class="st1" cx="1495" cy="486.5" r="2.5"/>
<circle class="st1" cx="1623" cy="524.5" r="2.5"/>
<circle class="st1" cx="1500" cy="581.5" r="2.5"/>
<circle class="st1" cx="1502" cy="304.5" r="2.5"/>
<circle class="st1" cx="1330" cy="251.5" r="2.5"/>
<circle class="st1" cx="1256" cy="766.5" r="2.5"/>
<circle class="st1" cx="1319" cy="642.5" r="2.5"/>
<circle class="st1" cx="1410" cy="754.5" r="2.5"/>
<circle class="st1" cx="1538" cy="792.5" r="2.5"/>
<circle class="st1" cx="1415" cy="849.5" r="2.5"/>
<circle class="st1" cx="1417" cy="572.5" r="2.5"/>
<circle class="st1" cx="1245" cy="519.5" r="2.5"/>
<circle class="st1" cx="1551" cy="424.5" r="2.5"/>
<circle class="st1" cx="1614" cy="300.5" r="2.5"/>
<circle class="st1" cx="1705" cy="412.5" r="2.5"/>
<circle class="st1" cx="1833" cy="450.5" r="2.5"/>
<circle class="st1" cx="1710" cy="507.5" r="2.5"/>
<circle class="st1" cx="1712" cy="230.5" r="2.5"/>
<circle class="st1" cx="1540" cy="177.5" r="2.5"/>
<circle class="st1" cx="1669" cy="713.5" r="2.5"/>
<circle class="st1" cx="1732" cy="589.5" r="2.5"/>
<circle class="st1" cx="1823" cy="701.5" r="2.5"/>
<circle class="st1" cx="1951" cy="739.5" r="2.5"/>
<circle class="st1" cx="1828" cy="796.5" r="2.5"/>
<circle class="st1" cx="1830" cy="519.5" r="2.5"/>
<circle class="st1" cx="1658" cy="466.5" r="2.5"/>
<circle class="st1" cx="1816" cy="385.5" r="2.5"/>
<circle class="st1" cx="1879" cy="261.5" r="2.5"/>
<circle class="st1" cx="1970" cy="373.5" r="2.5"/>
<circle class="st1" cx="2098" cy="411.5" r="2.5"/>
<circle class="st1" cx="1975" cy="468.5" r="2.5"/>
<circle class="st1" cx="1977" cy="191.5" r="2.5"/>
<circle class="st1" cx="1805" cy="138.5" r="2.5"/>
<circle class="st1" cx="1873" cy="824.5" r="2.5"/>
<circle class="st1" cx="1936" cy="700.5" r="2.5"/>
<circle class="st1" cx="2027" cy="812.5" r="2.5"/>
<circle class="st1" cx="2155" cy="850.5" r="2.5"/>
<circle class="st1" cx="2032" cy="907.5" r="2.5"/>
<circle class="st1" cx="2034" cy="630.5" r="2.5"/>
<circle class="st1" cx="1862" cy="577.5" r="2.5"/>
<circle class="st1" cx="1350" cy="343.5" r="2.5"/>
<circle class="st1" cx="1413" cy="219.5" r="2.5"/>
<circle class="st1" cx="1504" cy="331.5" r="2.5"/>
<circle class="st1" cx="1632" cy="369.5" r="2.5"/>
<circle class="st1" cx="1509" cy="426.5" r="2.5"/>
<circle class="st1" cx="1511" cy="149.5" r="2.5"/>
<circle class="st1" cx="1339" cy="96.5" r="2.5"/>
<circle class="st1" cx="2006" cy="317.5" r="2.5"/>
<circle class="st1" cx="2069" cy="193.5" r="2.5"/>
<circle class="st1" cx="2160" cy="305.5" r="2.5"/>
<circle class="st1" cx="2288" cy="343.5" r="2.5"/>
<circle class="st1" cx="2165" cy="400.5" r="2.5"/>
<circle class="st1" cx="2167" cy="123.5" r="2.5"/>
<circle class="st1" cx="1995" cy="70.5" r="2.5"/>
<circle class="st1" cx="2016" cy="657.5" r="2.5"/>
<circle class="st1" cx="2079" cy="533.5" r="2.5"/>
<circle class="st1" cx="2170" cy="645.5" r="2.5"/>
<circle class="st1" cx="2298" cy="683.5" r="2.5"/>
<circle class="st1" cx="2175" cy="740.5" r="2.5"/>
<circle class="st1" cx="2177" cy="463.5" r="2.5"/>
<circle class="st1" cx="2005" cy="410.5" r="2.5"/>
<circle class="st1" cx="1448" cy="871.5" r="2.5"/>
<circle class="st1" cx="1511" cy="747.5" r="2.5"/>
<circle class="st1" cx="1602" cy="859.5" r="2.5"/>
<circle class="st1" cx="1730" cy="897.5" r="2.5"/>
<circle class="st1" cx="1607" cy="954.5" r="2.5"/>
<circle class="st1" cx="1609" cy="677.5" r="2.5"/>
<circle class="st1" cx="1437" cy="624.5" r="2.5"/>
<circle class="st1" cx="1569" cy="333.5" r="2.5"/>
<circle class="st1" cx="1632" cy="209.5" r="2.5"/>
<circle class="st1" cx="1723" cy="321.5" r="2.5"/>
<circle class="st1" cx="1851" cy="359.5" r="2.5"/>
<circle class="st1" cx="1728" cy="416.5" r="2.5"/>
<circle class="st1" cx="1730" cy="139.5" r="2.5"/>
<circle class="st1" cx="1558" cy="86.5" r="2.5"/>
<circle class="st1" cx="1373.5" cy="159" r="2.5"/>
<circle class="st1" cx="1304.5" cy="196" r="2.5"/>
</svg>
