<?xml version="1.0" encoding="utf-8"?>
<!-- Generator: Adobe Illustrator 23.0.1, SVG Export Plug-In . SVG Version: 6.00 Build 0)  -->
<svg version="1.1" id="Layer_1" xmlns="http://www.w3.org/2000/svg" xmlns:xlink="http://www.w3.org/1999/xlink" x="0px" y="0px"
	 viewBox="0 0 862.07 1207.5" style="enable-background:new 0 0 862.07 1207.5;" xml:space="preserve">
<style type="text/css">
	.st0{fill:url(#SVGID_1_);}
	.st1{fill:#C4C4C4;fill-opacity:0.44;}
</style>
<radialGradient id="SVGID_1_" cx="293.8847" cy="1024.9019" r="1" gradientTransform="matrix(402.9166 -680.6601 -888.1229 -525.7241 792185.125 740225.6875)" gradientUnits="userSpaceOnUse">
	<stop  offset="0" style="stop-color:#E4665C"/>
	<stop  offset="1" style="stop-color:#003041"/>
</radialGradient>
<path class="st0" d="M191.68,786.36C191.68,668.78,120.99,0,0,0h819.53c0,298.42,74.87,1207.5,25.97,1207.5h-180
	c-89.69,0-127.32-21.5-162-69c-34.68-47.5-86.47-85.5-158-85.5C273.97,1053,191.68,933.33,191.68,786.36z"/>
<g>
	<circle class="st1" cx="421.54" cy="729.44" r="1.92"/>
	<circle class="st1" cx="590.12" cy="788.44" r="1.92"/>
	<circle class="st1" cx="433.8" cy="814.49" r="1.92"/>
	<circle class="st1" cx="536.48" cy="772.35" r="1.92"/>
	
		<ellipse transform="matrix(0.9951 -0.0985 0.0985 0.9951 -78.6301 70.6521)" class="st1" cx="675.94" cy="831.35" rx="1.92" ry="1.92"/>
	<circle class="st1" cx="735.63" cy="431.34" r="1.92"/>
	<circle class="st1" cx="750.63" cy="319.34" r="1.92"/>
	<circle class="st1" cx="625.63" cy="185.34" r="1.92"/>
	<circle class="st1" cx="542.63" cy="185.34" r="1.92"/>
	<circle class="st1" cx="661.63" cy="245.34" r="1.92"/>
	<circle class="st1" cx="734.63" cy="189.34" r="1.92"/>
	<circle class="st1" cx="753.63" cy="267.34" r="1.92"/>
	<circle class="st1" cx="714.63" cy="359.34" r="1.92"/>
	<circle class="st1" cx="627.63" cy="393.34" r="1.92"/>
	<circle class="st1" cx="701.63" cy="483.34" r="1.92"/>
	<circle class="st1" cx="589.63" cy="236.34" r="1.92"/>
	<circle class="st1" cx="598.63" cy="340.34" r="1.92"/>
	<circle class="st1" cx="765.63" cy="379.34" r="1.92"/>
	<circle class="st1" cx="790.63" cy="408.34" r="1.92"/>
	<circle class="st1" cx="724.22" cy="923.3" r="1.92"/>
	<circle class="st1" cx="608.51" cy="882.69" r="1.92"/>
	<circle class="st1" cx="780.92" cy="975.41" r="1.92"/>
	<circle class="st1" cx="633.03" cy="1114.11" r="1.92"/>
	<circle class="st1" cx="735.71" cy="796.1" r="1.92"/>
	<circle class="st1" cx="633.03" cy="743.23" r="1.92"/>
	<circle class="st1" cx="783.99" cy="701.09" r="1.92"/>
	<circle class="st1" cx="768.66" cy="615.26" r="1.92"/>
	<circle class="st1" cx="689.74" cy="639.02" r="1.92"/>
	<circle class="st1" cx="697.63" cy="582.34" r="1.92"/>
	<circle class="st1" cx="759.63" cy="521.34" r="1.92"/>
</g>
</svg>
