<?xml version="1.0" encoding="utf-8"?>
<!-- Generator: Adobe Illustrator 23.0.1, SVG Export Plug-In . SVG Version: 6.00 Build 0)  -->
<svg version="1.1" id="Layer_1" xmlns="http://www.w3.org/2000/svg" xmlns:xlink="http://www.w3.org/1999/xlink" x="0px" y="0px"
	 viewBox="0 0 1531.92 1052.61" style="enable-background:new 0 0 1531.92 1052.61;" xml:space="preserve">
<style type="text/css">
	.st0{fill:url(#SVGID_1_);}
	.st1{fill:#C4C4C4;}
</style>
<radialGradient id="SVGID_1_" cx="451.8891" cy="940.1244" r="1" gradientTransform="matrix(720.999 -1217.9974 -1589.2482 -940.7625 1168919 1436100.125)" gradientUnits="userSpaceOnUse">
	<stop  offset="0" style="stop-color:#E4665C"/>
	<stop  offset="1" style="stop-color:#003041"/>
</radialGradient>
<path class="st0" d="M343.15,214c0-210.4-126.5-214-343-214h1466.5c0,534,121,1048,33.5,1048h-320.5c-160.5,0-341,52.5-341-197
	s-49-317-177-317S343.15,477,343.15,214z"/>
<g>
	<circle class="st1" cx="537.04" cy="143.46" r="2.5"/>
	<circle class="st1" cx="433.04" cy="182.46" r="2.5"/>
	<circle class="st1" cx="504.04" cy="210.46" r="2.5"/>
	<circle class="st1" cx="667.04" cy="140.46" r="2.5"/>
	<circle class="st1" cx="624.04" cy="192.46" r="2.5"/>
	<circle class="st1" cx="711.04" cy="200.46" r="2.5"/>
	<circle class="st1" cx="801.04" cy="133.46" r="2.5"/>
	<circle class="st1" cx="514.04" cy="364.46" r="2.5"/>
	<circle class="st1" cx="750.04" cy="308.46" r="2.5"/>
	<circle class="st1" cx="703.04" cy="293.46" r="2.5"/>
	<circle class="st1" cx="970.04" cy="385.46" r="2.5"/>
	<circle class="st1" cx="766.04" cy="419.46" r="2.5"/>
	<circle class="st1" cx="900.04" cy="364.46" r="2.5"/>
	<circle class="st1" cx="1082.04" cy="441.46" r="2.5"/>
	<circle class="st1" cx="1145.04" cy="561.46" r="2.5"/>
	<circle class="st1" cx="994.04" cy="508.46" r="2.5"/>
	<circle class="st1" cx="1016.04" cy="696.46" r="2.5"/>
	<circle class="st1" cx="1219.04" cy="629.46" r="2.5"/>
	<circle class="st1" cx="1026.04" cy="810.46" r="2.5"/>
	<circle class="st1" cx="1160.04" cy="395.46" r="2.5"/>
	<circle class="st1" cx="1026.04" cy="326.46" r="2.5"/>
	<circle class="st1" cx="1258.04" cy="341.46" r="2.5"/>
	<circle class="st1" cx="1223.04" cy="271.46" r="2.5"/>
	<circle class="st1" cx="1290.04" cy="278.46" r="2.5"/>
	<circle class="st1" cx="1314.04" cy="383.46" r="2.5"/>
	<circle class="st1" cx="1258.04" cy="422.46" r="2.5"/>
	<circle class="st1" cx="1377.04" cy="423.46" r="2.5"/>
	<circle class="st1" cx="1442.04" cy="421.46" r="2.5"/>
	<circle class="st1" cx="1319.04" cy="478.46" r="2.5"/>
	<circle class="st1" cx="1321.04" cy="201.46" r="2.5"/>
	<circle class="st1" cx="1274.04" cy="215.46" r="2.5"/>
	<circle class="st1" cx="1203.04" cy="159.46" r="2.5"/>
	<circle class="st1" cx="1100.04" cy="190.46" r="2.5"/>
	<circle class="st1" cx="1061.04" cy="167.46" r="2.5"/>
	<circle class="st1" cx="949.04" cy="216.46" r="2.5"/>
	<circle class="st1" cx="1021.04" cy="221.46" r="2.5"/>
	<circle class="st1" cx="727.04" cy="142.46" r="2.5"/>
	<circle class="st1" cx="992.04" cy="161.46" r="2.5"/>
	<circle class="st1" cx="1292.04" cy="167.46" r="2.5"/>
	<circle class="st1" cx="1335.04" cy="144.46" r="2.5"/>
	<circle class="st1" cx="924.04" cy="154.46" r="2.5"/>
	<circle class="st1" cx="1149.04" cy="148.46" r="2.5"/>
	<circle class="st1" cx="1432.04" cy="138.46" r="2.5"/>
	<circle class="st1" cx="1363.04" cy="175.46" r="2.5"/>
</g>
</svg>
