<svg width="230" height="656" viewBox="0 0 230 656" fill="none" xmlns="http://www.w3.org/2000/svg">
<path d="M57.541 324.047H120.114L103.152 589.418H64.703L57.541 324.047Z" fill="#838280"/>
<path d="M112.576 324.047H174.395V589.418H133.685L112.576 324.047Z" fill="#838280"/>
<rect x="65.834" y="595.449" width="36.1869" height="22.6168" fill="#C6825E"/>
<rect x="134.438" y="595.449" width="36.1869" height="22.6168" fill="#C6825E"/>
<rect x="61.3101" y="576.602" width="45.9875" height="22.6168" rx="3" fill="#C4C4C4"/>
<rect x="129.915" y="576.602" width="45.9875" height="22.6168" rx="3" fill="#C4C4C4"/>
<rect x="50.7559" y="645.205" width="61.0654" height="9.80062" rx="2" fill="#CCCCCC"/>
<rect x="125.392" y="645.205" width="61.0654" height="9.80062" rx="2" fill="#CCCCCC"/>
<path d="M53.7715 637.804C53.7715 625.653 63.6212 615.804 75.7715 615.804H98.8058C104.329 615.804 108.806 620.281 108.806 625.804V646.713H53.7715V637.804Z" fill="#999B99"/>
<path d="M128.407 625.804C128.407 620.281 132.884 615.804 138.407 615.804H161.442C173.592 615.804 183.441 625.653 183.441 637.804V646.713H128.407V625.804Z" fill="#999B99"/>
<path d="M71.1108 619.573C71.1108 614.16 75.4987 609.772 80.9115 609.772H86.9426C92.3553 609.772 96.7432 614.16 96.7432 619.573V619.573H71.1108V619.573Z" fill="#C4C4C4"/>
<path d="M139.715 619.573C139.715 614.16 144.103 609.772 149.516 609.772H155.547C160.96 609.772 165.348 614.16 165.348 619.573V619.573H139.715V619.573Z" fill="#C4C4C4"/>
<path d="M40.3037 165.401C38.6268 146.12 53.8259 129.542 73.1796 129.542H157.674C177.146 129.542 192.384 146.314 190.523 165.696L174.086 336.865C173.594 341.994 169.285 345.91 164.132 345.91H65.1703C59.9833 345.91 55.6573 341.944 55.2079 336.776L40.3037 165.401Z" fill="#1B1426"/>
<rect x="51.7798" y="138.589" width="33.1713" height="113.741" transform="rotate(27.0334 51.7798 138.589)" fill="#1B1426"/>
<rect x="153.285" y="154.254" width="33.1713" height="113.741" transform="rotate(-21.0138 153.285 154.254)" fill="#1B1426"/>
<rect x="194.111" y="229.056" width="36.2233" height="114.175" rx="18.1116" transform="rotate(13.4219 194.111 229.056)" fill="#1B1426"/>
<ellipse cx="183.563" cy="348.478" rx="16.9626" ry="22.9938" transform="rotate(5.18111 183.563 348.478)" fill="#C6825E"/>
<path d="M68.8491 45.1074H157.809V85.0638C157.809 109.629 137.894 129.544 113.329 129.544V129.544C88.7634 129.544 68.8491 109.629 68.8491 85.0638V45.1074Z" fill="#C6825E"/>
<ellipse cx="95.6122" cy="82.4247" rx="7.91589" ry="5.65421" fill="white"/>
<ellipse cx="127.276" cy="82.4247" rx="7.91589" ry="5.65421" fill="white"/>
<path d="M109.668 148.362C77.1183 147.354 64.4607 111.819 68.9814 92.6025C88.1948 114.654 93.469 99.5331 111.175 99.5331C131.519 99.5331 141.314 114.654 158.267 92.6025C160.527 108.984 150.355 149.622 109.668 148.362Z" fill="#764F27"/>
<ellipse cx="66.2103" cy="84.3094" rx="7.16199" ry="12.0623" fill="#C6825E"/>
<ellipse cx="160.447" cy="84.3094" rx="7.16199" ry="12.0623" fill="#C6825E"/>
<path d="M90.7115 22.8672C85.6855 18.4695 78.6492 8.31705 90.7115 2.88901C96.4689 -3.55938 108.277 5.32894 114.444 11.0716C109.373 2.72063 122.295 -3.66365 129.537 2.88901C137.453 10.051 132.93 16.0822 146.877 13.4435C160.824 10.8049 149.892 22.8672 156.677 25.8828C163.462 28.8984 162.332 37.9451 161.578 46.6149C160.975 53.5507 158.06 68.3521 156.677 74.8859C153.536 71.7447 147.178 63.879 146.877 57.5463C146.5 49.6304 139.338 46.6149 110.69 46.6149C82.0419 46.6149 81.288 53.7769 81.288 60.5619C81.288 65.9899 74.2516 72.3729 70.7333 74.8859C69.4769 67.347 66.1346 51.1382 62.8175 46.6149C58.671 40.9607 64.3252 28.1445 70.7333 19.8516C75.8598 13.2174 86.1882 19.0977 90.7115 22.8672Z" fill="#764F27"/>
<path d="M130.133 115.711C121.269 116.738 104.45 117.319 93.0495 117.554C92.0182 117.575 91.7503 118.841 92.7074 119.226C97.9116 121.317 106.541 123.771 115.805 123.489C123.057 123.269 128.309 121.011 131.7 118.637C132.625 117.989 131.255 115.581 130.133 115.711Z" fill="#E8E6E6"/>
</svg>
