<svg width="1014" height="682" viewBox="0 0 1014 682" fill="none" xmlns="http://www.w3.org/2000/svg">
<circle cx="106.5" cy="12.5" r="2.5" fill="#C4C4C4"/>
<circle cx="2.5" cy="51.5" r="2.5" fill="#C4C4C4"/>
<circle cx="73.5" cy="79.5" r="2.5" fill="#C4C4C4"/>
<circle cx="236.5" cy="9.5" r="2.5" fill="#C4C4C4"/>
<circle cx="193.5" cy="61.5" r="2.5" fill="#C4C4C4"/>
<circle cx="280.5" cy="69.5" r="2.5" fill="#C4C4C4"/>
<circle cx="370.5" cy="2.5" r="2.5" fill="#C4C4C4"/>
<circle cx="83.5" cy="233.5" r="2.5" fill="#C4C4C4"/>
<circle cx="319.5" cy="177.5" r="2.5" fill="#C4C4C4"/>
<circle cx="272.5" cy="162.5" r="2.5" fill="#C4C4C4"/>
<circle cx="539.5" cy="254.5" r="2.5" fill="#C4C4C4"/>
<circle cx="335.5" cy="288.5" r="2.5" fill="#C4C4C4"/>
<circle cx="469.5" cy="233.5" r="2.5" fill="#C4C4C4"/>
<circle cx="651.5" cy="310.5" r="2.5" fill="#C4C4C4"/>
<circle cx="714.5" cy="430.5" r="2.5" fill="#C4C4C4"/>
<circle cx="563.5" cy="377.5" r="2.5" fill="#C4C4C4"/>
<circle cx="585.5" cy="565.5" r="2.5" fill="#C4C4C4"/>
<circle cx="788.5" cy="498.5" r="2.5" fill="#C4C4C4"/>
<circle cx="595.5" cy="679.5" r="2.5" fill="#C4C4C4"/>
<circle cx="729.5" cy="264.5" r="2.5" fill="#C4C4C4"/>
<circle cx="595.5" cy="195.5" r="2.5" fill="#C4C4C4"/>
<circle cx="827.5" cy="210.5" r="2.5" fill="#C4C4C4"/>
<circle cx="792.5" cy="140.5" r="2.5" fill="#C4C4C4"/>
<circle cx="859.5" cy="147.5" r="2.5" fill="#C4C4C4"/>
<circle cx="883.5" cy="252.5" r="2.5" fill="#C4C4C4"/>
<circle cx="827.5" cy="291.5" r="2.5" fill="#C4C4C4"/>
<circle cx="946.5" cy="292.5" r="2.5" fill="#C4C4C4"/>
<circle cx="1011.5" cy="290.5" r="2.5" fill="#C4C4C4"/>
<circle cx="888.5" cy="347.5" r="2.5" fill="#C4C4C4"/>
<circle cx="890.5" cy="70.5" r="2.5" fill="#C4C4C4"/>
<circle cx="843.5" cy="84.5" r="2.5" fill="#C4C4C4"/>
<circle cx="772.5" cy="28.5" r="2.5" fill="#C4C4C4"/>
<circle cx="669.5" cy="59.5" r="2.5" fill="#C4C4C4"/>
<circle cx="630.5" cy="36.5" r="2.5" fill="#C4C4C4"/>
<circle cx="518.5" cy="85.5" r="2.5" fill="#C4C4C4"/>
<circle cx="590.5" cy="90.5" r="2.5" fill="#C4C4C4"/>
<circle cx="296.5" cy="11.5" r="2.5" fill="#C4C4C4"/>
<circle cx="561.5" cy="30.5" r="2.5" fill="#C4C4C4"/>
<circle cx="861.5" cy="36.5" r="2.5" fill="#C4C4C4"/>
<circle cx="904.5" cy="13.5" r="2.5" fill="#C4C4C4"/>
<circle cx="493.5" cy="23.5" r="2.5" fill="#C4C4C4"/>
<circle cx="718.5" cy="17.5" r="2.5" fill="#C4C4C4"/>
<circle cx="1001.5" cy="7.5" r="2.5" fill="#C4C4C4"/>
<circle cx="932.5" cy="44.5" r="2.5" fill="#C4C4C4"/>
</svg>
