<svg width="897" height="723" viewBox="0 0 897 723" fill="none" xmlns="http://www.w3.org/2000/svg">
<rect width="23" height="634" fill="#B6BAC0"/>
<rect x="466" width="23" height="634" fill="#B6BAC0"/>
<rect width="489" height="374" fill="#7A92B1"/>
<path d="M49.5 99.5L46.5 33L89.5 82L49.5 99.5Z" fill="#5D6E84"/>
<path d="M142 104.5L139 38L182 87L142 104.5Z" fill="#5D6E84"/>
<path d="M164 199.5L161 133L204 182L164 199.5Z" fill="#5D6E84"/>
<path d="M324 111.5L321 45L364 94L324 111.5Z" fill="#5D6E84"/>
<path d="M393 111.5L390 45L433 94L393 111.5Z" fill="#5D6E84"/>
<path d="M93.5 32H47.5C47.5 85.5 54.5 96.5 59 94.5C62.6 92.9 72 88.5 97.5 83C95.5 73 94 44.8333 93.5 32Z" fill="#E88278"/>
<path d="M186 37H140C140 90.5 147 101.5 151.5 99.5C155.1 97.9 164.5 93.5 190 88C188 78 186.5 49.8333 186 37Z" fill="#E88278"/>
<path d="M368 44H322C322 97.5 329 108.5 333.5 106.5C337.1 104.9 346.5 100.5 372 95C370 85 368.5 56.8333 368 44Z" fill="#E88278"/>
<path d="M437 44H391C391 97.5 398 108.5 402.5 106.5C406.1 104.9 415.5 100.5 441 95C439 85 437.5 56.8333 437 44Z" fill="#E88278"/>
<rect x="276" y="351" width="621" height="49" fill="#C9D6E7"/>
<rect x="695" y="400" width="154" height="234" fill="#B6BAC0"/>
<rect x="849" y="400" width="39" height="234" fill="#89909A"/>
<rect x="279" y="400" width="33" height="234" fill="#B6BAC0"/>
<rect x="312" y="400" width="78" height="234" fill="#89909A"/>
<rect x="501" y="336" width="179" height="15" fill="#DCEBFF"/>
<rect x="647" y="336" width="41" height="15" fill="#CCCFD3"/>
<rect x="526" y="159" width="232" height="148" fill="#424F60"/>
<rect x="535" y="171" width="204" height="124" fill="#E88278"/>
<rect x="615" y="307" width="60" height="29" fill="#424F60"/>
<rect x="586" y="623" width="26" height="23" fill="#C6825E"/>
<path d="M396 466H583C600.673 466 615 480.327 615 498V517.459H396V466Z" fill="#C4C4C4"/>
<path d="M567 499.081H615V631.405H582L567 499.081Z" fill="#C4C4C4"/>
<rect x="577" y="614.865" width="41" height="21.1351" rx="3" fill="#C4C4C4"/>
<rect x="577" y="641" width="41" height="31" rx="6" fill="#999B99"/>
<path d="M630.806 641.24C639.172 641.388 646.088 647.802 646.866 656.133V656.133C646.998 657.541 646.184 658.866 644.869 659.385L615.373 671.027C612.291 672.244 608.806 670.732 607.589 667.649L600.228 649.001C598.657 645.021 601.638 640.723 605.916 640.799L630.806 641.24Z" fill="#999B99"/>
<rect x="483" y="609" width="26" height="23" fill="#C6825E"/>
<path d="M333 452H480C497.673 452 512 466.327 512 484V503H333V452Z" fill="#C4C4C4"/>
<path d="M464 485.081H512V617.405H479L464 485.081Z" fill="#C4C4C4"/>
<rect x="474" y="600.865" width="41" height="21.1351" rx="3" fill="#C4C4C4"/>
<rect x="474" y="627" width="41" height="31" rx="6" fill="#999B99"/>
<path d="M527.806 627.24C536.172 627.388 543.088 633.802 543.866 642.133V642.133C543.998 643.541 543.184 644.866 541.869 645.385L512.373 657.027C509.291 658.244 505.806 656.732 504.589 653.649L497.228 635.001C495.657 631.021 498.638 626.723 502.916 626.799L527.806 627.24Z" fill="#999B99"/>
<path d="M283.012 271.986C282.457 250.62 299.626 233 320.999 233H451.779C474.343 233 491.937 252.548 489.569 274.988L467.089 487.988C465.049 507.324 448.742 522 429.299 522H326.527C305.924 522 289.074 505.582 288.539 484.986L283.012 271.986Z" fill="#627C9D"/>
<rect x="586" y="310" width="54" height="26" rx="13" fill="#C6825E"/>
<rect x="479.039" y="245" width="150" height="54" rx="23" transform="rotate(44.7837 479.039 245)" fill="#627C9D"/>
<rect x="529" y="351.494" width="94.011" height="35.7595" rx="17.8798" transform="rotate(-30.9176 529 351.494)" fill="#627C9D"/>
<path d="M264.924 375.338L201.745 247.382L261.874 299.779L295.025 314.888L310.508 381.982L264.924 375.338Z" fill="#5D6E84"/>
<rect x="224.162" y="265.096" width="93" height="54" rx="20" transform="rotate(-18.8294 224.162 265.096)" fill="#627C9D"/>
<rect x="183.638" y="214.422" width="43.3692" height="121.581" rx="20" transform="rotate(-31.4907 183.638 214.422)" fill="#627C9D"/>
<rect x="166.183" y="188.02" width="47" height="54.426" rx="23.5" transform="rotate(-31.5331 166.183 188.02)" fill="#C6825E"/>
<rect x="193.736" y="163.478" width="20" height="42" rx="10" transform="rotate(-18.8294 193.736 163.478)" fill="#C6825E"/>
<path d="M195.324 118.561L151.786 133.407C169.053 184.044 179.229 192.196 182.842 188.851C185.733 186.175 193.21 178.976 215.57 165.54C210.45 156.721 199.939 130.546 195.324 118.561Z" fill="#E88278"/>
<rect x="174.2" y="165.057" width="15.1899" height="42" rx="7.59497" transform="rotate(-38.8078 174.2 165.057)" fill="#C6825E"/>
<rect x="172.094" y="180.566" width="15.1899" height="42" rx="7.59497" transform="rotate(-38.8078 172.094 180.566)" fill="#C6825E"/>
<rect x="276" y="233" width="190" height="269" rx="95" fill="#424F60"/>
<rect x="300" y="517" width="253" height="29" rx="14.5" fill="#424F60"/>
<rect x="342" y="374" width="37" height="157" fill="#303945"/>
<rect x="396" y="546" width="37" height="100" fill="#303945"/>
<rect x="423" y="634" width="134" height="12" transform="rotate(9.59572 423 634)" fill="#303945"/>
<rect x="273" y="665.505" width="134" height="12" transform="rotate(-13.5982 273 665.505)" fill="#303945"/>
<rect x="388.442" y="718.355" width="87.8367" height="19.9897" transform="rotate(-79.4624 388.442 718.355)" fill="#303945"/>
<rect x="353" y="187" width="45" height="46" fill="#C6825E"/>
<path d="M349 104H448V186C448 202.569 434.569 216 418 216H369C357.954 216 349 207.046 349 196V104Z" fill="#C6825E"/>
<path d="M398 193C396.8 199 366.833 195.5 352 193C338.5 168.499 341 111.5 342 93C343 74.5004 371.5 78.9997 392.5 71.5C413.5 64.0003 405.5 93.9997 412 78.9997C418.5 63.9997 428.5 59.4997 453 61.4997C469.629 62.8572 455.622 77.5749 446.001 85.0149C452.298 84.3476 461.685 86.2096 471.5 88.4998C486.5 91.9998 484 116.5 466 111.5C448 106.5 442.5 118.5 435.5 124C428.5 129.5 430.5 162 428.5 151C426.5 140 412 137.5 405.5 147.5C399 157.5 399.5 185.5 398 193Z" fill="#764F27"/>
</svg>
