<svg width="118" height="118" viewBox="0 0 118 118" fill="none" xmlns="http://www.w3.org/2000/svg">
<path d="M35.0131 53.1348C34.7322 52.0627 34.3661 51.0093 33.8569 50.1153C33.7328 49.8895 33.5924 49.6864 33.4507 49.4908C33.3039 49.3064 33.1547 49.1246 32.9955 48.9917C32.8387 48.855 32.6807 48.7384 32.529 48.6744C32.376 48.6067 32.233 48.5716 32.0851 48.5628C31.6575 48.5565 31.2524 48.6431 30.8649 48.8262C30.48 49.0168 30.1138 49.3027 29.7828 49.6563C29.1194 50.3723 28.6078 51.3291 28.2115 52.3361C27.8152 53.3493 27.5369 54.4327 27.3325 55.5312C27.1356 56.6322 27.0127 57.7545 26.9701 58.8806C26.886 61.1265 27.0754 63.4087 27.6761 65.5154C27.982 66.56 28.4009 67.5644 28.9815 68.3758C29.2699 68.7808 29.6034 69.1219 29.9633 69.379C30.322 69.6398 30.7132 69.7965 31.127 69.863C31.9935 70.006 32.7597 69.7326 33.4055 69.0768C33.729 68.7545 34.0099 68.3407 34.2545 67.893C34.499 67.4428 34.7034 66.9525 34.8777 66.4421C35.2238 65.4201 35.4533 64.3267 35.5975 63.2156C35.7442 62.1046 35.8094 60.9735 35.8107 59.8412C35.8094 58.7088 35.7492 57.574 35.6188 56.4504C35.4896 55.3268 35.294 54.212 35.0131 53.1348Z" fill="#84BF95"/>
<path d="M57.3573 56.2311C56.7566 56.0116 56.2011 55.8774 55.7522 55.8825C55.5265 55.8825 55.3271 55.91 55.1314 55.9577C54.9371 56.0016 54.7465 56.1007 54.5534 56.2173C54.1696 56.4693 53.7884 56.8643 53.4536 57.3471C53.3683 57.465 53.2893 57.5967 53.2053 57.7195C53.1853 57.7496 53.1614 57.7835 53.1451 57.8111L53.0987 57.8939C53.0674 57.9478 53.036 58.0029 53.0085 58.0644C52.8893 58.2976 52.7852 58.5647 52.695 58.8456C52.6473 58.9836 52.6109 59.1315 52.5683 59.2757C52.5332 59.425 52.4943 59.5717 52.4642 59.7247C52.3953 60.0256 52.3451 60.3404 52.2987 60.6551C52.1231 61.9229 52.0968 63.2521 52.1771 64.5651C52.2548 65.8767 52.458 67.1934 52.8204 68.3809C52.9119 68.6756 53.0147 68.9628 53.1338 69.2249C53.253 69.4869 53.3771 69.7352 53.5138 69.9396C53.648 70.1453 53.7934 70.3033 53.9076 70.3911C54.0267 70.4789 54.0894 70.5064 54.1772 70.5215C54.2637 70.539 54.4204 70.5115 54.6136 70.4224C54.8079 70.3296 55.0261 70.1729 55.2418 69.9923C55.3484 69.8957 55.4575 69.8017 55.5628 69.6888C55.6707 69.5848 55.7735 69.4669 55.8776 69.349C56.0832 69.112 56.2851 68.8575 56.4933 68.6004C56.9058 68.0837 57.3309 67.5445 57.7874 67.0053C57.8977 66.8686 58.0194 66.7357 58.1372 66.6003C58.2564 66.4661 58.3755 66.3294 58.5022 66.1965C58.5398 66.1576 58.5774 66.1175 58.615 66.0786L58.5975 65.5758L58.5924 65.0704L58.5912 64.5651L58.6012 64.0635C58.6075 63.7286 58.6113 63.3938 58.6313 63.0628L58.679 62.0771L58.7266 61.1266L58.7655 60.1786C58.7818 59.5479 58.8006 58.9171 58.8056 58.2901C58.8069 57.8023 58.8044 57.3158 58.7943 56.8317C58.2815 56.606 57.8125 56.3941 57.3573 56.2311Z" fill="#84BF95"/>
<path d="M23.8462 30.0715C23.712 29.8633 23.5665 29.7166 23.4148 29.6188L23.2004 29.4896C23.1264 29.4482 23.0524 29.4043 22.9784 29.3655C22.8304 29.2877 22.6837 29.2112 22.5383 29.1485C22.2461 29.0169 21.9614 28.9278 21.6993 28.8777C21.5689 28.8564 21.4435 28.8438 21.3257 28.8413C21.2078 28.8413 21.0974 28.8526 20.9921 28.8727C20.8855 28.8915 20.7852 28.9266 20.6836 28.9705C20.582 29.0144 20.4805 29.0708 20.3802 29.1435C20.177 29.284 19.9751 29.4871 19.7845 29.7266C19.4033 30.2132 19.0773 30.8427 18.8052 31.511C18.5318 32.1832 18.3036 32.8979 18.1067 33.629C17.7142 35.0949 17.432 36.6235 17.1975 38.1622C16.9643 39.7021 16.78 41.2595 16.6245 42.822C16.548 43.602 16.4727 44.3907 16.4138 45.1669C16.3473 45.9444 16.3022 46.7244 16.2608 47.5044C16.2408 47.8981 16.2245 48.2931 16.2119 48.6869C16.5543 48.7722 16.8891 48.7671 17.2703 48.6631C17.7368 48.5314 18.2521 48.2342 18.7399 47.8241C19.2303 47.4141 19.6967 46.9037 20.1281 46.3444C20.5595 45.7839 20.9557 45.1745 21.3219 44.5362C22.0517 43.2584 22.6524 41.8752 23.1464 40.4545C23.6367 39.0324 24.0192 37.5665 24.26 36.0931C24.3791 35.357 24.4619 34.6197 24.4945 33.8924C24.5271 33.1663 24.507 32.4465 24.4067 31.7769C24.3076 31.1123 24.117 30.4865 23.8462 30.0715Z" fill="#84BF95"/>
<path d="M92.0137 0H25.9863C11.6345 0 0 11.6345 0 25.9863V92.0137C0 106.366 11.6345 118 25.9863 118H92.0137C106.366 118 118 106.366 118 92.0137V25.9863C118 11.6345 106.366 0 92.0137 0ZM22.6332 48.2044C22.119 48.9155 21.5397 49.6064 20.8362 50.2384C20.1327 50.8641 19.2901 51.446 18.2405 51.7921C17.7176 51.9614 17.1457 52.0604 16.5664 52.0617C16.4385 52.0617 16.3106 52.0567 16.1839 52.0467C16.1852 52.0956 16.1839 52.1457 16.1852 52.1946C16.2404 55.3233 16.4824 58.452 16.9138 61.5556C17.1345 63.1068 17.4003 64.6517 17.7201 66.1841C17.8793 66.9503 18.0524 67.7139 18.2392 68.4714C18.332 68.8513 18.4311 69.2275 18.5326 69.6037C18.6342 69.9749 18.7433 70.3599 18.8537 70.7085L17.3777 71.2C17.2436 70.795 17.1319 70.4188 17.0191 70.0288C16.9087 69.6413 16.8009 69.2538 16.6993 68.8651C16.4949 68.0889 16.3081 67.3089 16.1325 66.5264C15.7827 64.9627 15.4905 63.3877 15.2397 61.8064C14.7343 58.6439 14.4208 55.4512 14.2992 52.2473C14.2415 50.6447 14.2202 49.0409 14.2603 47.4358C14.2979 45.8306 14.3907 44.2243 14.5174 42.6368C14.6428 41.0442 14.797 39.4504 15.0052 37.854C15.2159 36.2577 15.4742 34.6589 15.8667 33.055C16.0623 32.2538 16.293 31.4499 16.5965 30.6449C16.9025 29.8423 17.2749 29.0323 17.8492 28.2523C18.1401 27.8648 18.485 27.4836 18.9226 27.1576C19.354 26.829 19.887 26.5669 20.45 26.439C20.7309 26.3751 21.0155 26.34 21.2939 26.3324C21.5723 26.3274 21.8419 26.3487 22.1027 26.3864C22.6206 26.4679 23.0972 26.6158 23.5335 26.7964C23.7542 26.8854 23.9624 26.9845 24.1668 27.0861C24.2696 27.1375 24.3674 27.1914 24.4678 27.2441L24.6132 27.3268L24.686 27.3682C24.7123 27.3833 24.7298 27.3921 24.7662 27.4146C25.2916 27.7306 25.7092 28.167 26.0139 28.6159C26.3211 29.0674 26.5318 29.5339 26.6923 29.9928C26.8491 30.4518 26.9582 30.9057 27.0347 31.3534C27.1864 32.2487 27.2265 33.119 27.214 33.9755C27.1989 34.8319 27.1262 35.6734 27.0146 36.5035C26.7889 38.165 26.4114 39.7852 25.9123 41.3715C25.4095 42.9565 24.7838 44.5077 23.9887 46.0075C23.5887 46.7548 23.1448 47.4922 22.6332 48.2044ZM37.6885 63.488C37.5305 64.7031 37.2835 65.9195 36.8784 67.1208C36.674 67.7215 36.4283 68.3171 36.1135 68.9002C35.7963 69.4796 35.4188 70.0526 34.9122 70.563C34.7818 70.6884 34.6576 70.8163 34.5109 70.9304C34.4394 70.9881 34.3705 71.0483 34.2952 71.1035L34.0645 71.2627C33.9893 71.3179 33.9078 71.3655 33.8237 71.4107C33.741 71.4571 33.6582 71.5047 33.5742 71.5486L33.3109 71.6665L33.1779 71.7229L33.0413 71.7693L32.7654 71.8584L32.4832 71.9223L32.3415 71.9524C32.2939 71.9599 32.2462 71.965 32.1998 71.9712L31.9152 72.0038C31.8199 72.0126 31.7271 72.0101 31.6318 72.0139C31.5377 72.0139 31.4424 72.0214 31.3496 72.0126C31.1628 71.9976 30.9772 71.9938 30.7916 71.9549L30.5132 71.906L30.2399 71.8333C30.0555 71.7894 29.8825 71.7142 29.7057 71.6489C29.6166 71.6163 29.5351 71.5699 29.4498 71.5311C29.3671 71.4884 29.2793 71.4521 29.2003 71.4032C29.0423 71.3066 28.878 71.2163 28.7338 71.106C28.1382 70.6809 27.6516 70.1605 27.2591 69.6112C26.4754 68.5052 25.9964 67.3039 25.6427 66.1026C25.2954 64.8975 25.0885 63.6774 24.9631 62.4572C24.8452 61.2371 24.8113 60.0145 24.8615 58.7956C24.9079 57.5767 25.0421 56.3604 25.2603 55.1515C25.486 53.9452 25.7932 52.7439 26.2522 51.5701C26.4829 50.9845 26.75 50.4052 27.0735 49.8409C27.3983 49.2791 27.7745 48.7286 28.2448 48.2258C28.715 47.7254 29.2806 47.2677 29.9502 46.9392C30.6211 46.6156 31.3935 46.4514 32.1396 46.4702C32.5785 46.4852 33.0137 46.5956 33.3949 46.7686C33.7824 46.9404 34.1021 47.1774 34.3843 47.4257C34.9473 47.9298 35.3411 48.4991 35.6709 49.0709C36.3229 50.2209 36.723 51.4084 37.0402 52.6009C37.3525 53.7947 37.5631 54.9973 37.7036 56.2049C37.8453 57.4125 37.9117 58.6238 37.913 59.8389C37.9142 61.0565 37.8478 62.2729 37.6885 63.488ZM49.076 42.0461C48.5367 42.1214 48.0326 42.1953 47.5311 42.2819C47.0307 42.3684 46.5366 42.4524 46.0413 42.5465L44.1114 42.8988C44.1616 45.8344 44.1491 48.7687 44.1302 51.7043C44.1202 53.3082 44.0939 54.912 44.0763 56.5171C44.0563 58.121 44.0149 59.7248 43.9848 61.3299C43.8983 64.5376 43.8017 67.7466 43.6236 70.9542H42.2693C42.0913 67.7466 41.9947 64.5376 41.9082 61.3299C41.8781 59.7261 41.8355 58.1222 41.8166 56.5171C41.7991 54.9133 41.7715 53.3094 41.7627 51.7043C41.7452 48.9155 41.7326 46.1278 41.774 43.339L40.0448 43.6713C39.5369 43.7666 39.0278 43.8606 38.5124 43.9459C37.9983 44.0324 37.4791 44.1139 36.9512 44.1754L36.906 44.0588C37.3512 43.7578 37.8152 43.502 38.2879 43.2637C38.7607 43.0255 39.2435 42.8098 39.7325 42.6129C40.4084 42.3408 41.0981 42.1038 41.7991 41.9019C41.8342 40.357 41.8806 38.8134 41.9571 37.2684L42.0148 36.0659L42.0862 34.8633C42.1377 34.0607 42.1953 33.2594 42.2693 32.4569H43.6236C43.6989 33.2594 43.7553 34.0607 43.8067 34.8633L43.8782 36.0659L43.9359 37.2684C44.0036 38.6403 44.0475 40.0122 44.0813 41.384C44.1616 41.3715 44.2406 41.3577 44.3209 41.3464C44.85 41.2737 45.3867 41.2298 45.9272 41.231C46.4664 41.2285 47.0132 41.2749 47.5511 41.379C48.0878 41.4868 48.6233 41.6448 49.1035 41.927L49.076 42.0461ZM59.6571 71.3066L59.5831 71.1599C59.5367 71.0621 59.4828 70.9593 59.4439 70.864C59.3712 70.6759 59.2847 70.4777 59.2332 70.2959C59.1743 70.1103 59.1129 69.9235 59.074 69.7441C59.0301 69.5636 58.9824 69.3792 58.9511 69.2037C58.9185 69.0269 58.8784 68.8463 58.8533 68.672L58.8382 68.5654C58.6827 68.9805 58.4984 69.3868 58.279 69.783C58.0946 70.1166 57.8877 70.4426 57.6507 70.7599C57.5328 70.9191 57.4137 71.0771 57.2795 71.2326C57.1541 71.3894 57.0087 71.5424 56.8632 71.6953C56.561 71.9976 56.2274 72.2948 55.8036 72.5518C55.692 72.6133 55.5791 72.6735 55.465 72.7324C55.3446 72.7876 55.2155 72.8365 55.0888 72.8854C54.9546 72.928 54.8129 72.9631 54.6725 72.997C54.5233 73.0183 54.3741 73.0421 54.2211 73.0471C54.1433 73.0484 54.0656 73.0471 53.9878 73.0446L53.8712 73.0409L53.7546 73.0258C53.6768 73.0145 53.5991 73.0033 53.5226 72.9895C53.4448 72.9757 53.3721 72.9518 53.2981 72.9318C53.2241 72.9092 53.1477 72.8891 53.0787 72.8616L52.8718 72.7738C52.7301 72.7161 52.6147 72.6409 52.4881 72.5681C52.0078 72.2672 51.6567 71.901 51.3708 71.5386C51.0861 71.1724 50.8591 70.8013 50.6673 70.4276C50.4729 70.0539 50.3149 69.6789 50.1757 69.304C49.6164 67.8067 49.3594 66.2995 49.2189 64.7859C49.0985 63.2711 49.1324 61.7475 49.3794 60.2101C49.5098 59.4402 49.6854 58.6677 49.9813 57.8902C50.1255 57.5015 50.2973 57.1115 50.518 56.7228C50.5695 56.6262 50.6296 56.5284 50.6911 56.4318L50.7826 56.2876C50.8127 56.24 50.8428 56.2024 50.8729 56.1597C50.9958 55.9942 51.1074 55.8262 51.2391 55.6644C51.7582 55.0199 52.3978 54.3904 53.2404 53.9226C53.6668 53.6982 54.1358 53.5101 54.6411 53.4285C55.1427 53.3445 55.6619 53.3633 56.1359 53.4737C56.6112 53.5828 57.0438 53.7759 57.4125 54.0179C57.7836 54.2587 58.1009 54.5446 58.3718 54.8543C58.5034 55.0086 58.6263 55.1678 58.7367 55.3334C58.7216 55.08 58.7028 54.8267 58.6815 54.5747C58.5787 53.3596 58.3805 52.1683 58.0808 51.0811C57.9291 50.5394 57.7473 50.024 57.519 49.5663C57.2883 49.1098 57.0212 48.7023 56.6588 48.3913C56.6124 48.3537 56.5673 48.3135 56.5209 48.2722L56.3704 48.1681L56.2939 48.1129L56.2111 48.069C56.156 48.0402 56.0995 48.0076 56.0431 47.9737C55.9842 47.9461 55.924 47.9223 55.8625 47.8947C55.8011 47.8671 55.7396 47.8395 55.6732 47.822L55.4751 47.7555C55.4073 47.7317 55.3371 47.7229 55.2669 47.7041C54.7001 47.5699 54.0568 47.5461 53.3759 47.5599L53.332 47.442C53.8687 47.0094 54.5045 46.6809 55.238 46.5141C55.3296 46.4965 55.4211 46.4702 55.5164 46.4602L55.8036 46.4275C55.9002 46.415 55.998 46.4163 56.097 46.4175C56.1961 46.4188 56.2952 46.4175 56.3955 46.4225C56.4958 46.4326 56.5961 46.4438 56.6964 46.4589L56.8482 46.4815L56.9974 46.5166L57.2996 46.5931C57.3974 46.6269 57.494 46.6633 57.5918 46.7022L57.7385 46.7599C57.7861 46.7812 57.8313 46.8063 57.8777 46.8288L58.1561 46.9743C58.2476 47.0257 58.3316 47.0846 58.4182 47.1423C58.5022 47.2025 58.5962 47.2564 58.6715 47.3229C58.9925 47.5787 59.2897 47.8646 59.538 48.1706C60.0446 48.7825 60.4158 49.4547 60.7079 50.1306C61.0026 50.809 61.202 51.4962 61.3638 52.1833L61.4779 52.6987L61.5732 53.2116L61.6196 53.4687L61.6585 53.7245L61.7349 54.2361C61.7788 54.5759 61.8165 54.917 61.8491 55.2569C61.8741 55.5954 61.9092 55.9353 61.9268 56.2726C61.9719 56.9485 61.9895 57.6219 61.9945 58.2928C61.9933 58.6276 61.9995 58.9636 61.992 59.2972C61.9845 59.6308 61.977 59.9656 61.9644 60.2979L61.9193 61.2948C61.9017 61.6258 61.8741 61.9569 61.8503 62.288L61.7813 63.246C61.7575 63.562 61.7349 63.8755 61.7174 64.1902L61.6873 64.6617L61.6685 65.1307L61.6459 65.5997L61.6334 66.065C61.6158 66.6857 61.6196 67.2964 61.6396 67.8958C61.6647 68.4902 61.7186 69.0733 61.8165 69.5836C61.8277 69.6488 61.839 69.7128 61.8553 69.768L61.8992 69.9423C61.9143 70 61.9331 70.0426 61.9481 70.0953L61.9707 70.1718L61.9958 70.2307C62.0271 70.3172 62.0585 70.3736 62.0735 70.41C62.0785 70.4175 62.0861 70.4476 62.0798 70.4389C62.0773 70.4401 62.0735 70.4426 62.0685 70.4476C62.0622 70.4451 62.0547 70.4414 62.0459 70.4426C62.0422 70.4426 62.0372 70.4439 62.0321 70.4451C62.0271 70.4439 62.0221 70.4414 62.0171 70.4414C62.0071 70.4389 61.9945 70.4426 61.9845 70.4451C61.9682 70.4414 61.9469 70.4564 61.9444 70.4577C61.9331 70.4702 61.9456 70.4677 61.9544 70.4777C61.9719 70.4765 61.9908 70.4827 62.0221 70.474C62.081 70.4627 62.1638 70.4376 62.2503 70.3912C62.2942 70.3686 62.3381 70.3436 62.3833 70.316L62.4472 70.2746C62.4635 70.2645 62.4949 70.2395 62.4886 70.252L64.0272 71.6552C63.9658 71.7279 63.9382 71.758 63.8968 71.8044C63.8579 71.8471 63.8203 71.8872 63.7802 71.9273C63.7024 72.0063 63.6197 72.0816 63.5319 72.1556C63.3576 72.3023 63.1582 72.4402 62.92 72.5581C62.8046 72.6183 62.6679 72.6697 62.53 72.7161C62.3807 72.755 62.234 72.7963 62.0597 72.8064C61.8942 72.8264 61.7124 72.8126 61.5343 72.7913C61.4453 72.7763 61.3562 72.7537 61.2685 72.7299C61.2246 72.7173 61.1794 72.7048 61.1368 72.691L61.0139 72.6396C60.9336 72.6032 60.8509 72.5656 60.7744 72.523C60.7054 72.4791 60.6365 72.4339 60.5687 72.3863C60.4245 72.2897 60.3305 72.1894 60.2201 72.0841C60.022 71.8772 59.8665 71.664 59.7486 71.4634C59.7185 71.4094 59.6859 71.3568 59.6571 71.3066ZM82.1523 77.4336C82.0934 78.8757 81.973 80.3203 81.7749 81.7611C81.5805 83.2019 81.2858 84.6365 80.8958 86.0535C80.7065 86.7632 80.4732 87.4642 80.2275 88.1602C79.9704 88.8536 79.6883 89.5408 79.3647 90.2117L79.1215 90.7145L78.8594 91.2086L78.7277 91.4556L78.5873 91.6989L78.3039 92.183C78.2073 92.3435 78.102 92.499 78.0016 92.657C77.8988 92.8137 77.801 92.9742 77.6894 93.1247C77.4712 93.4307 77.2543 93.7417 77.0298 94.0238C76.1382 95.175 75.1701 96.2873 74.0579 97.2967C73.5011 97.7996 72.9092 98.2798 72.2609 98.7037C71.6126 99.1275 70.9104 99.5 70.1479 99.7758C69.3817 100.043 68.5516 100.211 67.7039 100.195C67.2813 100.186 66.8587 100.138 66.4462 100.048C66.0349 99.9539 65.6361 99.8197 65.2586 99.6529C64.5 99.3194 63.8341 98.8529 63.2485 98.3363C62.6616 97.8171 62.1575 97.2378 61.7061 96.6346C61.2559 96.0302 60.8622 95.3969 60.5098 94.7461C60.422 94.5831 60.3368 94.4188 60.254 94.2545C60.175 94.0878 60.0809 93.9273 60.0345 93.7454C59.9869 93.5636 59.9718 93.3667 60.0057 93.151C60.0408 92.9354 60.1148 92.7046 60.2954 92.4425L60.4132 92.3986C60.7205 92.4639 60.9311 92.5566 61.1092 92.6607C61.2848 92.7661 61.4214 92.8864 61.5255 93.0206C61.6321 93.1535 61.6986 93.3065 61.7826 93.4507C61.8641 93.5962 61.9469 93.7404 62.0321 93.8834C62.3745 94.4527 62.7507 94.9994 63.1632 95.5035C63.9846 96.5079 64.9665 97.3607 66.0487 97.7782C67.1246 98.2146 68.2745 98.1582 69.3767 97.7143C70.4802 97.2641 71.5135 96.4816 72.4528 95.5775C73.3945 94.6684 74.2497 93.6288 75.0422 92.5341C75.2479 92.2594 75.4272 91.9911 75.6103 91.7202C75.7056 91.5873 75.7858 91.4444 75.8736 91.3064C75.9589 91.166 76.0479 91.0293 76.1294 90.8876L76.369 90.4575L76.4881 90.2418L76.5984 90.0211L76.8204 89.5797L77.026 89.1295C77.569 87.9257 77.9991 86.6617 78.339 85.3663C78.6813 84.0709 78.9271 82.743 79.1051 81.3999C79.4625 78.7126 79.5353 75.9689 79.4437 73.224C79.3484 70.4777 79.0688 67.7252 78.6612 64.989C78.0944 61.3211 77.3809 57.667 76.6361 54.0041C76.5533 53.8562 76.4693 53.7094 76.3815 53.5652C76.1671 53.2053 75.9401 52.8555 75.7043 52.5182C75.4648 52.1821 75.2216 51.8548 74.957 51.5526C74.6974 51.2466 74.4215 50.9632 74.1306 50.7124C73.8422 50.4604 73.5387 50.2422 73.2277 50.0779C72.9192 49.9086 72.6032 49.7945 72.2935 49.7418C71.985 49.6892 71.679 49.6917 71.3831 49.7481C71.442 49.7506 71.4922 49.7381 71.511 49.7343C71.5223 49.7293 71.5236 49.7368 71.5236 49.7381C71.521 49.7494 71.5173 49.7506 71.5072 49.7694C71.4721 49.8246 71.4082 49.94 71.3543 50.0791C71.2389 50.3575 71.1486 50.7162 71.0709 51.0811C70.9931 51.4485 70.9329 51.8347 70.8853 52.226C70.79 53.011 70.7285 53.8173 70.6997 54.6299C70.6307 56.2538 70.6558 57.899 70.7361 59.5342C70.8213 61.1694 70.9718 62.8021 71.2163 64.3934C71.2778 64.7909 71.348 65.1859 71.427 65.5746C71.5022 65.9646 71.5863 66.3496 71.6841 66.7258C71.7819 67.1007 71.8897 67.4682 72.0101 67.8168C72.1305 68.1654 72.2684 68.4964 72.4214 68.7811C72.5681 69.067 72.7399 69.304 72.8703 69.4256C72.9343 69.4871 72.9807 69.5184 73.0058 69.5347C73.0321 69.5523 73.0471 69.5661 73.096 69.5711C73.1437 69.5761 73.2277 69.5611 73.3305 69.5209C73.4334 69.4796 73.5563 69.4118 73.6829 69.3266C73.9375 69.1585 74.1996 68.9077 74.4579 68.6419C74.9733 68.0989 75.4523 67.4468 75.915 66.776C76.3752 66.1013 76.8166 65.3966 77.2593 64.6843L78.359 65.1884C78.0944 66.0098 77.7935 66.8224 77.4286 67.6224C77.0637 68.4237 76.6524 69.2137 76.1019 69.9824C75.8235 70.3674 75.5125 70.7448 75.1074 71.1035C74.9043 71.2815 74.6786 71.4571 74.4065 71.6088C74.1343 71.7593 73.8158 71.8935 73.4447 71.9587C73.076 72.0251 72.6609 72.0088 72.2835 71.9023C71.9023 71.7994 71.5775 71.6138 71.3104 71.4157C71.042 71.2151 70.8263 70.9969 70.6395 70.7787C70.4539 70.5592 70.2946 70.3385 70.1567 70.1178C69.8808 69.6739 69.6702 69.2338 69.4858 68.7949C69.3002 68.356 69.151 67.9183 69.0181 67.482C68.8852 67.0456 68.7698 66.6092 68.667 66.1741C68.5667 65.7377 68.4801 65.3025 68.4024 64.8674C68.2431 63.9984 68.134 63.1269 68.0488 62.2579C67.9597 61.3888 67.9158 60.5186 67.8857 59.6496C67.8331 57.9103 67.8882 56.1723 68.0738 54.428C68.1742 53.5565 68.3021 52.6824 68.4964 51.8034C68.5967 51.3632 68.7096 50.9231 68.8538 50.4754C69.0005 50.0265 69.1723 49.5788 69.4394 49.1023C69.5761 48.8653 69.7366 48.617 69.9862 48.3612C70.0451 48.2985 70.1228 48.232 70.1968 48.1718C70.2808 48.1091 70.3636 48.0489 70.4677 47.9925C70.6671 47.8809 70.9191 47.7906 71.1875 47.7718C71.733 47.7518 72.2822 47.8295 72.7851 48.0076C73.2879 48.1856 73.7381 48.4515 74.1268 48.7575C74.5143 49.0672 74.8429 49.417 75.13 49.782C75.5213 50.2861 75.8335 50.8203 76.0968 51.3683C75.9075 50.4466 75.7181 49.5236 75.5288 48.5994L76.5696 48.2345C77.2003 49.5312 77.7195 50.8478 78.2035 52.1858C78.6851 53.5226 79.1127 54.8782 79.5014 56.245C80.2701 58.9812 80.8632 61.7688 81.2871 64.589C81.7222 67.4067 82.0269 70.252 82.1423 73.1199C82.1937 74.5519 82.215 75.9915 82.1523 77.4336ZM88.5915 61.5155L88.5364 62.7206L88.5038 63.3225C88.4875 63.5231 88.4636 63.7225 88.4436 63.9219C88.3997 64.3219 88.3646 64.7207 88.3144 65.1194C88.2931 65.3188 88.2617 65.517 88.2291 65.7151C88.1991 65.9132 88.1652 66.1113 88.1288 66.3095C88.0599 66.7045 87.9884 67.0995 87.9056 67.4907L86.7645 67.3917C86.703 66.6042 86.6955 65.8242 86.6592 65.0455C86.6341 64.6555 86.6228 64.268 86.604 63.8793L86.5802 63.2974L86.5413 62.7168L86.4761 61.5581C86.4522 61.1719 86.4121 60.7882 86.3883 60.4032C86.3431 59.6333 86.2466 58.8683 86.1877 58.1009C86.0196 56.571 85.8215 55.0487 85.5895 53.5326C85.5293 53.1539 85.4754 52.774 85.4052 52.3965L85.3111 51.8285L85.2083 51.2629C85.1757 51.0736 85.1418 50.8855 85.1055 50.6974L84.9951 50.1343C84.9575 49.9475 84.9236 49.7581 84.881 49.5738L84.7694 49.0333L86.1425 48.4791C86.2529 48.6835 86.3381 48.8615 86.4284 49.0509C86.5162 49.239 86.5939 49.4271 86.6755 49.6164C86.7582 49.8058 86.8247 49.9964 86.8987 50.187C86.9714 50.3776 87.0454 50.5682 87.1068 50.7613L87.2987 51.3407L87.4705 51.925C87.5244 52.1206 87.5833 52.315 87.6322 52.5119L87.7752 53.1025C88.1476 54.68 88.3721 56.2839 88.5025 57.8915C88.5276 58.294 88.5489 58.6965 88.569 59.0991C88.5765 59.301 88.5941 59.5016 88.5941 59.7022L88.5991 60.3067C88.5978 60.7104 88.5991 61.113 88.5915 61.5155ZM103.76 59.8414C103.747 61.0465 103.669 62.2516 103.5 63.4529C103.417 64.0536 103.311 64.6517 103.175 65.2486C103.042 65.8455 102.882 66.4386 102.68 67.0268C102.478 67.6136 102.236 68.1942 101.93 68.756C101.622 69.3153 101.257 69.8645 100.775 70.3448C100.296 70.8213 99.7081 71.2452 99.0234 71.4709L98.7676 71.5549L98.5055 71.6138L98.3739 71.6427C98.33 71.6502 98.2861 71.654 98.2422 71.6602L97.9776 71.6916C97.8898 71.6991 97.8021 71.6979 97.713 71.7016C97.6252 71.7016 97.5362 71.7104 97.4497 71.7004C97.2754 71.6853 97.0998 71.6828 96.9268 71.6477L96.666 71.6026L96.4101 71.5348C96.2371 71.4947 96.0753 71.4245 95.9098 71.3643C95.827 71.3342 95.7505 71.2916 95.6703 71.2539C95.5925 71.2138 95.5098 71.1812 95.4358 71.1348C95.2878 71.0445 95.1323 70.9618 94.9969 70.8564C94.4339 70.4577 93.9674 69.9636 93.5874 69.4357C93.2062 68.9065 92.9002 68.346 92.6419 67.7729C92.3861 67.1986 92.1704 66.6155 91.9936 66.0248C91.2989 63.6573 91.092 61.2221 91.1509 58.8019C91.1835 57.5905 91.3014 56.3817 91.5046 55.1791C91.714 53.9778 92.0099 52.7827 92.4538 51.614C92.677 51.0309 92.9366 50.4541 93.2526 49.8936C93.5686 49.3343 93.936 48.7875 94.3975 48.286C94.8577 47.7881 95.4107 47.3304 96.0691 47.0044C96.4026 46.8526 96.7512 46.7172 97.1186 46.647C97.4836 46.5642 97.856 46.5479 98.2234 46.5517C98.651 46.5692 99.0724 46.6796 99.4423 46.8514C99.8172 47.0207 100.128 47.2552 100.403 47.501C100.95 47.9988 101.333 48.5618 101.653 49.1299C102.286 50.271 102.673 51.4535 102.975 52.641C103.271 53.8298 103.465 55.0274 103.59 56.2287C103.72 57.4325 103.767 58.6363 103.76 59.8414Z" fill="#84BF95"/>
<path d="M101.902 56.4269C101.757 55.2971 101.547 54.1785 101.25 53.0963C100.954 52.0179 100.572 50.9595 100.046 50.0579C99.9165 49.8309 99.7711 49.624 99.6231 49.4259C99.4701 49.2391 99.3146 49.0547 99.1478 48.918C98.9836 48.7776 98.8155 48.6585 98.6525 48.5933C98.4883 48.523 98.3328 48.4892 98.1735 48.4829C97.9553 48.4892 97.7384 48.498 97.5302 48.5531C97.3195 48.592 97.1189 48.6735 96.9183 48.7613C96.522 48.9544 96.1433 49.2391 95.8022 49.5964C95.1188 50.3175 94.5909 51.2793 94.1808 52.2925C93.7695 53.3108 93.4798 54.3992 93.2591 55.504C93.0459 56.6112 92.908 57.7398 92.8528 58.8734C92.7914 60.007 92.8127 61.1469 92.9118 62.2742C93.0171 63.4003 93.1977 64.5201 93.4974 65.5935C93.7958 66.6632 94.2209 67.6965 94.8254 68.5504C95.4298 69.4006 96.2348 70.0327 97.164 70.1706C97.2782 70.1982 97.3985 70.1957 97.5152 70.2082C97.5741 70.217 97.633 70.2082 97.6907 70.2095C97.7497 70.207 97.8086 70.2107 97.8663 70.2057L98.0381 70.1856C98.0669 70.1819 98.0958 70.1806 98.1233 70.1756L98.2074 70.1568L98.3754 70.1217L98.5384 70.0678L98.6199 70.0427L98.6989 70.0076L98.8569 69.9373L99.0087 69.8508C99.0601 69.8232 99.1102 69.7944 99.1579 69.758L99.3033 69.6577C99.351 69.6226 99.3961 69.5812 99.4425 69.5436C99.5378 69.4709 99.6231 69.3793 99.7121 69.2953C100.061 68.9442 100.354 68.5066 100.607 68.0388C100.86 67.5686 101.069 67.062 101.246 66.539C101.598 65.4907 101.824 64.3784 101.956 63.2524C102.093 62.1263 102.146 60.9839 102.137 59.8428C102.126 58.6991 102.047 57.5567 101.902 56.4269Z" fill="#84BF95"/>
</svg>
