<svg width="336" height="61" viewBox="0 0 336 61" fill="none" xmlns="http://www.w3.org/2000/svg">
<path d="M140.797 36.0159L144.152 17.1992H149.642L143.847 43.4192H138.357L134.392 25.8364L130.122 43.4192H124.632L118.836 17.1992H124.327L127.987 36.0159L132.257 17.1992H136.832L140.797 36.0159Z" fill="white"/>
<path d="M174.042 38.1749H164.587L162.757 43.7273H156.962L166.722 17.5073H171.602L181.362 43.7273H175.567L174.042 38.1749ZM165.807 33.8563H172.212L168.857 23.9852L165.807 33.8563Z" fill="white"/>
<path d="M196.613 39.1006H207.898V43.4192H191.123V17.1992H196.613V39.1006Z" fill="white"/>
<path d="M223.759 39.1006H235.044V43.4192H218.269V17.1992H223.759V39.1006Z" fill="white"/>
<path d="M264.934 34.7819C264.629 37.5582 263.714 39.7175 261.884 41.5683C260.054 43.4191 257.614 44.0361 254.564 44.0361C251.209 44.0361 248.464 42.8022 246.634 40.6429C244.804 38.4836 243.889 35.0904 243.889 31.0803V29.5379C243.889 27.0702 244.194 24.9109 245.109 22.7516C246.024 20.5923 247.244 19.3584 248.769 18.433C250.294 17.5076 252.429 16.8906 254.564 16.8906C257.614 16.8906 260.054 17.816 261.884 19.3584C263.714 20.9007 264.629 23.3685 264.934 26.1447H259.444C259.444 24.2939 258.834 23.06 257.919 22.4431C257.004 21.8262 255.784 21.2092 254.259 21.2092C252.429 21.2092 251.209 21.8262 250.294 23.06C249.379 24.2939 249.074 26.4532 249.074 29.2295V31.0803C249.074 33.8565 249.379 36.0158 250.294 37.2497C251.209 38.4836 252.429 39.1005 254.259 39.1005C255.784 39.1005 257.004 38.7921 257.919 37.8666C258.834 36.9412 259.139 36.0158 259.444 34.165H264.934V34.7819Z" fill="white"/>
<path d="M297.264 31.0803C297.264 33.548 296.959 36.0158 296.044 37.8666C295.129 39.7175 293.909 41.2598 292.079 42.4937C290.249 43.7276 288.419 44.0361 286.284 44.0361C284.149 44.0361 282.319 43.4191 280.489 42.4937C278.659 41.5683 277.439 40.0259 276.524 37.8666C275.609 35.7073 274.999 33.548 274.999 31.0803V29.8464C274.999 27.3786 275.609 24.9109 276.524 23.06C277.439 21.2092 278.659 19.6669 280.489 18.433C282.319 17.1991 284.149 16.8906 286.284 16.8906C288.419 16.8906 290.249 17.5076 292.079 18.433C293.909 19.3584 295.129 20.9007 296.044 23.06C296.959 25.2193 297.569 27.3786 297.569 29.8464V31.0803H297.264ZM292.079 29.8464C292.079 27.0702 291.469 24.9109 290.554 23.677C289.639 22.4431 288.114 21.5177 286.284 21.5177C284.454 21.5177 283.234 22.1346 282.014 23.677C280.794 25.2193 280.489 27.0702 280.489 29.8464V31.0803C280.489 33.8565 281.099 35.7073 282.014 37.2497C282.929 38.7921 284.454 39.409 286.284 39.409C288.114 39.409 289.334 38.7921 290.554 37.2497C291.774 35.7073 292.079 33.8565 292.079 31.0803V29.8464Z" fill="white"/>
<path d="M315.564 17.1992L322.275 36.3244L328.985 17.1992H336V43.4192H330.51V36.3244L331.12 23.9856L324.105 43.7277H320.444L313.429 23.9856L314.039 36.3244V43.4192H308.549V17.1992H315.564Z" fill="white"/>
<rect y="8.7959" width="20.8135" height="56.3978" rx="10.4067" transform="rotate(-25 0 8.7959)" fill="url(#paint0_linear)"/>
<rect x="30.4131" y="8.7959" width="20.8135" height="56.3978" rx="10.4067" transform="rotate(-25 30.4131 8.7959)" fill="url(#paint1_linear)"/>
<rect x="38.8062" width="20.8135" height="56.3978" rx="10.4067" transform="rotate(25 38.8062 0)" fill="#FFC603"/>
<rect x="69.6904" y="0.413086" width="20.8135" height="56.3978" rx="10.4067" transform="rotate(25 69.6904 0.413086)" fill="url(#paint2_linear)"/>
<defs>
<linearGradient id="paint0_linear" x1="10.4067" y1="8.7959" x2="10.4067" y2="65.1937" gradientUnits="userSpaceOnUse">
<stop offset="0.265625" stop-color="#CE4639"/>
<stop offset="0.979167" stop-color="#571B15"/>
</linearGradient>
<linearGradient id="paint1_linear" x1="40.8198" y1="8.7959" x2="40.8198" y2="65.1937" gradientUnits="userSpaceOnUse">
<stop offset="0.286458" stop-color="#FFC603"/>
<stop offset="1" stop-color="#453500"/>
</linearGradient>
<linearGradient id="paint2_linear" x1="80.0972" y1="0.413086" x2="80.0972" y2="56.8109" gradientUnits="userSpaceOnUse">
<stop offset="0.276042" stop-color="#5D959E"/>
<stop offset="1" stop-color="#35595F"/>
</linearGradient>
</defs>
</svg>
