<svg width="430" height="92" viewBox="0 0 430 92" fill="none" xmlns="http://www.w3.org/2000/svg">
<path d="M7.00879 40.867C8.57785 40.7673 9.62389 40.4683 10.1469 40.0696C11.0884 39.4715 11.8206 38.1757 12.3436 36.2819L20.3981 8.47267C20.7119 7.67528 20.9211 6.97755 21.0257 6.37951C21.1304 5.78146 21.235 5.28308 21.235 4.78471C21.235 3.78796 20.9211 3.09024 20.1889 2.69154C19.4567 2.29284 18.0968 2.09349 16.214 1.99382V0.99707H33.2644C36.4026 0.99707 39.2269 1.29609 41.5282 1.79447C43.8295 2.29284 46.0261 3.38926 48.0136 4.98406C49.4781 6.18016 50.6287 7.67528 51.5702 9.36975C53.0346 11.8616 53.6622 14.7522 53.6622 17.9418C53.6622 24.2213 51.1517 29.7034 46.0261 34.2884C40.4821 39.3718 33.1598 41.8637 24.2685 41.8637H7.00879V40.867ZM43.411 28.607C45.3985 24.7197 46.4446 20.7327 46.4446 16.646C46.4446 12.7587 45.3985 9.46942 43.411 6.7782C41.4236 4.08699 37.7624 2.79122 32.5322 2.79122C31.0678 2.79122 30.0217 2.89089 29.4987 3.18991C28.8711 3.48894 28.4526 3.88764 28.2434 4.58536L19.2475 35.3848C19.0383 35.9829 18.9337 36.4813 18.9337 36.7803C18.9337 37.0793 18.8291 37.3783 18.8291 37.6774C18.8291 38.5744 19.1429 39.1725 19.6659 39.4715C20.2935 39.7705 21.4442 39.9699 23.2224 39.9699C32.7414 39.9699 39.5407 36.1822 43.411 28.607Z" fill="#405E11"/>
<path d="M105.128 4.48428C107.952 7.37485 109.416 10.8635 109.416 15.0498C109.416 22.326 106.592 28.9045 100.839 34.6857C95.1903 40.2674 89.0186 43.158 82.1148 43.158C77.826 43.158 74.1648 41.8622 71.3405 39.2707C68.5162 36.6792 67.0518 32.9912 67.0518 28.3065C67.0518 21.5286 69.8761 15.1495 75.5247 9.26866C81.1733 3.28819 87.345 0.297952 93.8304 0.297952C98.5376 0.198278 102.303 1.59372 105.128 4.48428ZM97.5962 29.5026C100.839 23.4224 102.408 17.8407 102.408 12.6576C102.408 9.46801 101.676 6.97615 100.211 5.08233C98.7468 3.28819 96.5501 2.39112 93.6212 2.39112C87.9726 2.39112 83.1608 5.9794 79.1858 13.2556C75.8385 19.3358 74.1648 25.2166 74.1648 30.7984C74.1648 34.0876 74.8971 36.5795 76.4661 38.274C78.0352 39.9684 80.1273 40.8655 82.847 40.8655C88.7048 40.8655 93.6212 37.0779 97.5962 29.5026Z" fill="#405E11"/>
<path d="M118.412 40.867C120.295 40.6676 121.655 39.9699 122.387 38.9731C123.119 37.8767 124.165 35.4845 125.316 31.5972L133.161 4.48568C133.371 3.58861 132.952 2.89089 131.906 2.49219C130.86 2.09349 129.5 1.99382 128.245 1.99382V0.99707H140.274L144.877 31.6969H145.086L168.413 0.99707H179.396V1.99382C177.618 2.19317 176.467 2.49219 175.84 2.99056C175.212 3.48894 174.585 4.68503 174.062 6.57885L166.007 34.3881C165.798 35.1855 165.589 35.8832 165.484 36.4813C165.379 37.0793 165.275 37.6774 165.275 38.1757C165.275 39.2722 165.693 39.9699 166.53 40.3686C167.367 40.6676 168.622 40.867 170.4 40.9666V41.9634H152.199V40.9666C153.978 40.867 155.337 40.5679 156.07 40.2689C157.325 39.6709 158.266 38.5744 158.789 36.88L167.367 7.27658H167.158L141.216 41.9634H140.065L135.044 8.373H134.835L127.513 34.8865C127.408 35.4845 127.199 36.0826 127.094 36.6806C126.99 37.2787 126.885 37.777 126.885 38.0761C126.885 39.1725 127.408 39.9699 128.35 40.4683C128.977 40.7673 130.023 40.9666 131.488 40.9666V41.9634H118.412V40.867Z" fill="#405E11"/>
<path d="M180.234 40.8665C181.698 40.5675 182.849 39.8697 183.685 38.9727C184.522 38.0756 186.196 35.4841 188.706 31.3974L207.954 0H209.418L215.799 35.5837C216.217 37.8762 216.74 39.2717 217.263 39.8697C217.786 40.4678 219.042 40.7668 220.82 40.9662V41.9629H204.606V40.9662C206.594 40.7668 207.849 40.5675 208.372 40.2684C209.313 39.8697 209.732 39.0723 209.732 37.8762C209.732 37.5772 209.732 37.2782 209.732 36.8795C209.732 36.5805 209.627 36.2815 209.627 35.9824L208.163 27.8091H194.041L189.857 34.886C189.543 35.3844 189.334 35.8828 189.125 36.3811C188.811 37.2782 188.602 38.0756 188.602 38.7733C188.602 39.5707 188.916 40.1688 189.439 40.4678C189.962 40.7668 191.008 40.9662 192.472 41.0658V42.0626H180.129V40.8665H180.234ZM207.744 25.5166L205.025 9.26971L195.506 25.5166H207.744Z" fill="#405E11"/>
<path d="M229.711 40.867C231.28 40.7673 232.326 40.4683 232.849 40.0696C233.791 39.4715 234.523 38.1757 235.046 36.2819L243.1 8.47267C243.414 7.37625 243.623 6.57885 243.728 6.08048C243.833 5.58211 243.937 5.18341 243.937 4.68503C243.937 3.68829 243.623 2.99056 242.891 2.59187C242.159 2.19317 241.008 1.99382 239.23 1.89414V0.99707H255.548V1.99382C253.77 2.19317 252.619 2.59187 251.992 3.09024C251.364 3.58861 250.736 4.78471 250.213 6.67853L242.159 34.4878C241.845 35.4845 241.636 36.2819 241.531 36.88C241.427 37.478 241.322 37.9764 241.322 38.2754C241.322 39.2722 241.741 39.9699 242.473 40.3686C243.205 40.6676 244.356 40.9666 245.82 40.9666V41.9634H229.606V40.867H229.711Z" fill="#405E11"/>
<path d="M259.001 40.8669C260.884 40.5679 262.244 39.9698 262.976 38.9731C263.708 37.9763 264.754 35.4845 265.8 31.5972L273.436 5.28308C273.436 5.1834 273.332 4.7847 272.913 4.18666C272.495 3.58861 272.076 3.18991 271.658 2.89089C271.24 2.59186 270.821 2.39251 270.194 2.29284C269.671 2.19316 268.834 2.09349 267.892 1.89414V0.99707H278.457L291.951 31.9959H292.16L298.751 8.07396C298.96 7.37624 299.064 6.67852 299.169 6.18015C299.274 5.5821 299.378 5.1834 299.378 4.88438C299.378 3.78796 298.855 2.99056 297.809 2.49219C297.181 2.19316 296.135 2.09349 294.671 1.99382V0.99707H307.851V1.99382C305.864 2.39251 304.504 3.09024 303.771 3.98731C303.039 4.88438 302.098 7.37624 300.947 11.2635L293.102 38.076C292.893 38.9731 292.683 39.5711 292.579 39.9698C292.474 40.3685 292.16 41.3653 291.742 42.9601H290.487L275.738 8.67201H275.424L268.102 34.7867C267.997 35.2851 267.788 35.7835 267.683 36.4812C267.578 37.1789 267.474 37.6773 267.474 38.076C267.474 39.2721 267.997 40.0695 269.148 40.4682C269.775 40.7672 270.821 40.8669 272.181 40.9666V41.9633H259.001V40.8669Z" fill="#405E11"/>
<path d="M312.243 40.8669C313.812 40.7672 314.858 40.4682 315.381 40.0695C316.323 39.4714 317.055 38.1757 317.578 36.2818L325.632 8.47266C325.842 7.57559 326.051 6.77819 326.26 6.18014C326.365 5.5821 326.469 5.08372 326.469 4.58535C326.469 3.58861 326.051 2.89089 325.319 2.49219C324.586 2.09349 323.227 1.89414 321.344 1.89414V0.99707H354.085L351.993 10.5658L350.633 10.4661C350.738 9.8681 350.738 9.27005 350.738 8.67201C350.738 8.07396 350.738 7.87461 350.738 8.07396C350.738 5.9808 350.005 4.68503 348.436 3.98731C346.867 3.38926 343.624 2.99056 338.708 2.99056C336.407 2.99056 335.047 3.09023 334.419 3.28958C333.792 3.48893 333.478 3.88763 333.269 4.58535L328.98 19.2375C334.733 19.0382 338.29 18.7391 339.44 18.2408C340.591 17.7424 341.846 16.0479 343.206 13.1574L344.461 13.4564L339.963 28.0089L338.708 27.7098C338.917 26.5137 339.022 25.7163 339.126 25.517C339.126 25.218 339.231 24.9189 339.231 24.6199C339.231 23.3242 338.708 22.4271 337.767 22.0284C336.721 21.6297 334.942 21.4303 332.327 21.4303H328.561L324.482 35.4844C324.377 35.8831 324.273 36.2818 324.168 36.6805C324.063 37.0792 324.063 37.3783 324.063 37.777C324.063 38.4747 324.273 38.8734 324.586 39.2721C325.214 39.8701 326.574 40.1691 328.561 40.1691C334.419 40.1691 338.708 39.5711 341.219 38.375C343.729 37.1789 346.344 34.8864 348.855 31.3978L349.901 31.8962L345.821 42.063H312.348V40.8669H312.243Z" fill="#405E11"/>
<path d="M376.889 41.3647C377.83 41.265 378.458 41.1653 378.772 40.8663C379.295 40.4676 379.713 39.7699 380.027 38.5738L384.734 22.2271C384.839 21.7287 384.943 21.33 385.048 20.9313C385.152 20.5326 385.153 20.2336 385.153 20.0342C385.153 19.4362 384.943 19.0375 384.525 18.7384C384.106 18.5391 383.27 18.3398 382.119 18.3398V17.7417H392.161C394.044 17.7417 395.613 17.941 397.077 18.2401C398.437 18.5391 399.797 19.2368 400.948 20.1339C401.785 20.8316 402.517 21.7287 403.04 22.7255C403.877 24.2206 404.295 25.9151 404.295 27.7092C404.295 31.3972 402.831 34.5868 399.797 37.278C396.554 40.2683 392.266 41.7634 387.035 41.7634H376.784V41.3647H376.889ZM398.333 34.0884C399.483 31.7959 400.111 29.5034 400.111 27.1112C400.111 24.8186 399.483 22.9248 398.333 21.33C397.182 19.7352 394.985 18.9378 391.952 18.9378C391.115 18.9378 390.487 19.0375 390.173 19.1372C389.86 19.3365 389.546 19.5359 389.441 19.9346L384.106 37.9757C384.002 38.3744 383.897 38.5738 383.897 38.7731C383.897 38.9725 383.897 39.0722 383.897 39.2715C383.897 39.7699 384.106 40.1686 384.42 40.3679C384.734 40.5673 385.466 40.667 386.512 40.667C392.056 40.7666 396.031 38.5738 398.333 34.0884Z" fill="#405E11"/>
<path d="M405.132 41.3646C406.074 41.2649 406.701 41.1652 407.015 40.8662C407.538 40.4675 407.956 39.7698 408.27 38.5737L412.977 22.227C413.082 21.7286 413.291 21.2303 413.291 20.9312C413.396 20.5325 413.396 20.2335 413.396 20.0342C413.396 19.4361 413.187 19.0374 412.664 18.8381C412.245 18.6387 411.408 18.4394 410.362 18.4394V17.8413H429.61L428.354 23.4231L427.518 23.3234C427.518 22.9247 427.622 22.6257 427.622 22.3267C427.622 22.0276 427.622 21.8283 427.622 21.928C427.622 20.7319 427.204 19.9345 426.262 19.5358C425.321 19.1371 423.438 18.9377 420.509 18.9377C419.149 18.9377 418.312 19.0374 417.999 19.1371C417.685 19.2368 417.475 19.5358 417.266 19.9345L414.756 28.5065C418.208 28.4068 420.195 28.2075 420.927 27.9085C421.66 27.6094 422.392 26.6127 423.124 24.9182L423.856 25.1176L421.241 33.6896L420.509 33.4902C420.614 32.7925 420.718 32.2941 420.718 32.1945C420.718 31.9951 420.718 31.8955 420.718 31.6961C420.718 30.8987 420.404 30.4003 419.881 30.201C419.254 30.0016 418.208 29.8023 416.639 29.8023H414.442L412.036 38.0753C411.931 38.3743 411.931 38.5737 411.827 38.773C411.722 38.9724 411.722 39.1717 411.722 39.4707C411.722 39.8694 411.827 40.1685 412.036 40.3678C412.454 40.6668 413.187 40.8662 414.337 40.8662C417.789 40.8662 420.3 40.4675 421.764 39.7698C423.229 39.072 424.798 37.6766 426.262 35.6831L426.89 35.9821L424.484 41.9626H404.818V41.3646H405.132Z" fill="#405E11"/>
<path d="M33.1595 49.7373C35.3562 50.2357 36.7161 50.4351 37.2391 50.4351C38.0759 50.4351 38.5989 50.3354 38.9128 50.0364C39.2266 49.7373 39.5404 49.4383 39.7496 49.0396H41.1094L38.7035 61.5986L37.5529 61.3993C37.3437 58.9074 36.7161 56.9139 35.7746 55.4188C34.101 52.6279 31.2767 51.2325 27.4063 51.2325C21.4439 51.2325 16.4229 54.123 12.5525 59.8045C9.20517 64.7882 7.4269 70.1706 7.4269 75.9517C7.4269 80.2378 8.47294 83.527 10.565 85.7199C12.6571 87.9127 15.2722 89.0091 18.5149 89.0091C21.8623 89.0091 24.8958 88.2117 27.7201 86.7166C29.3938 85.8195 31.4859 84.1251 34.2056 81.6332L35.2516 82.5303C32.8457 85.4208 30.126 87.7133 27.0925 89.4078C24.059 91.1023 20.7116 91.8997 17.0505 91.8997C11.6111 91.8997 7.32229 90.2052 4.39338 86.916C1.46446 83.6267 0 79.7394 0 75.3537C0 69.0742 2.4059 63.1934 7.32229 57.811C12.6571 51.9302 19.2472 48.9399 26.9879 48.9399C28.8708 49.0396 30.9628 49.239 33.1595 49.7373Z" fill="#405E11"/>
<path d="M39.959 89.7079C41.528 89.6082 42.5741 89.3092 43.0971 88.9105C44.0385 88.3125 44.7708 87.0167 45.2938 85.1229L53.3483 57.3136C53.6621 56.2171 53.8713 55.4197 53.9759 54.9214C54.0806 54.423 54.1852 54.0243 54.1852 53.5259C54.1852 52.5292 53.7667 51.8315 53.0345 51.4328C52.3023 51.0341 50.9424 50.8347 49.0596 50.735V49.7383H67.0515V50.735C65.2732 50.8347 64.018 51.1337 63.1811 51.5324C61.8213 52.2302 60.8798 53.5259 60.3568 55.3201L56.8003 67.5801H77.1981L80.5454 56.5162C80.7546 55.7188 80.8592 55.1207 80.9638 54.6223C81.0684 54.124 81.0684 53.7253 81.0684 53.4262C81.0684 52.4295 80.5454 51.7318 79.4994 51.2334C78.7671 50.9344 77.7211 50.8347 76.4659 50.735V49.7383H92.7841V50.735C91.0058 50.9344 89.8552 51.2334 89.2276 51.7318C88.5999 52.2302 87.9723 53.4263 87.4493 55.3201L79.3948 83.1294L78.7671 85.5216C78.7671 85.7209 78.6625 85.9203 78.6625 86.1196C78.6625 86.319 78.6625 86.5183 78.6625 86.7177C78.6625 87.9138 79.081 88.7112 79.8132 89.0102C80.5454 89.3092 81.9053 89.5086 83.7881 89.6082V90.605H65.6916V89.6082C67.4699 89.5086 68.7251 89.2095 69.4574 88.8108C70.8172 88.1131 71.7587 86.8173 72.2817 85.0232L76.5705 70.1716H56.1726L52.4069 83.1294L51.7793 85.5216C51.7793 85.7209 51.6747 85.9203 51.6747 86.1196C51.6747 86.319 51.6747 86.5183 51.6747 86.7177C51.6747 87.8141 51.9885 88.6115 52.7207 88.9105C53.3483 89.2095 54.6036 89.5086 56.3818 89.6082V90.605H39.959V89.7079Z" fill="#405E11"/>
<path d="M88.0771 89.7078C89.6462 89.6082 90.6923 89.3091 91.2153 88.9104C92.1567 88.3124 92.8889 87.0166 93.412 85.1228L101.466 57.3136C101.676 56.4165 101.885 55.6191 102.094 55.021C102.199 54.423 102.303 53.9246 102.303 53.4262C102.303 52.4295 101.885 51.7318 101.153 51.3331C100.42 50.9344 99.0606 50.735 97.1777 50.735V49.7383H130.023L127.931 59.3071L126.571 59.2074C126.676 58.6093 126.676 58.0113 126.676 57.4132C126.676 56.8152 126.676 56.6158 126.676 56.8152C126.676 54.722 125.944 53.4262 124.375 52.7285C122.806 52.1305 119.563 51.7318 114.647 51.7318C112.345 51.7318 110.985 51.8314 110.358 52.0308C109.73 52.2301 109.416 52.6288 109.207 53.3266L104.918 67.9787C110.672 67.7794 114.228 67.4804 115.379 66.982C116.529 66.4836 117.785 64.7892 119.145 61.8986L120.4 62.1976L115.902 76.7501L114.647 76.4511C114.856 75.255 114.96 74.4576 115.065 74.2583C115.065 73.9592 115.17 73.6602 115.17 73.3612C115.17 72.0654 114.647 71.1683 113.705 70.7696C112.764 70.3709 110.881 70.1716 108.266 70.1716H104.5L100.42 84.2257C100.316 84.6244 100.211 85.0231 100.107 85.4218C100.002 85.8205 100.002 86.1195 100.002 86.5182C100.002 87.216 100.211 87.6147 100.525 88.0134C101.153 88.6114 102.513 88.9104 104.5 88.9104C110.358 88.9104 114.647 88.3124 117.157 87.1163C119.668 85.9202 122.283 83.6277 124.793 80.1391L125.839 80.6374L121.76 90.8043H88.2864V89.7078H88.0771Z" fill="#405E11"/>
<path d="M149.374 49.8379V50.8346C147.805 50.9343 146.655 51.1337 145.922 51.4327C144.876 51.9311 144.249 52.7285 144.249 54.0242C144.249 54.2236 144.249 54.3232 144.249 54.5226C144.249 54.7219 144.249 54.8216 144.353 55.021L148.537 82.3318H148.956L162.241 60.5031C162.868 59.4066 163.496 58.3102 164.123 57.1141C165.17 55.2203 165.588 53.8249 165.588 53.0275C165.588 52.2301 165.274 51.7317 164.647 51.5324C164.019 51.2333 162.973 51.034 161.508 50.8346V49.8379H173.747V50.8346C172.806 51.034 172.073 51.2333 171.655 51.5324C171.237 51.8314 170.714 52.4294 170.086 53.3265L145.504 92.0002H144.249L138.705 59.307C138.077 55.4197 137.449 53.1271 137.031 52.3298C136.508 51.5324 135.357 51.034 133.579 50.8346V49.8379H149.374Z" fill="#405E11"/>
<path d="M168.518 89.7078C170.087 89.6082 171.133 89.3091 171.656 88.9104C172.597 88.3124 173.329 87.0166 173.852 85.1228L181.907 57.3136C182.116 56.4165 182.325 55.6191 182.535 55.021C182.639 54.423 182.744 53.9246 182.744 53.4262C182.744 52.4295 182.325 51.7318 181.593 51.3331C180.861 50.9344 179.501 50.735 177.618 50.735V49.7383H210.464L208.372 59.3071L207.012 59.2074C207.117 58.6093 207.117 58.0113 207.117 57.4132C207.117 56.8152 207.117 56.6158 207.117 56.8152C207.117 54.722 206.384 53.4262 204.815 52.7285C203.246 52.1305 200.003 51.7318 195.087 51.7318C192.786 51.7318 191.426 51.8314 190.798 52.0308C190.171 52.2301 189.857 52.6288 189.648 53.3266L185.359 67.9787C191.112 67.7794 194.669 67.4804 195.819 66.982C196.97 66.4836 198.225 64.7892 199.585 61.8986L200.84 62.1976L196.342 76.7501L195.087 76.4511C195.296 75.255 195.401 74.4576 195.505 74.2583C195.505 73.9592 195.61 73.6602 195.61 73.3612C195.61 72.0654 195.087 71.1683 194.146 70.7696C193.204 70.3709 191.321 70.1716 188.706 70.1716H184.94L180.861 84.2257C180.756 84.6244 180.652 85.0231 180.547 85.4218C180.442 85.8205 180.442 86.1195 180.442 86.5182C180.442 87.216 180.652 87.6147 180.965 88.0134C181.593 88.6114 182.953 88.9104 184.94 88.9104C190.798 88.9104 195.087 88.3124 197.598 87.1163C200.108 85.9202 202.723 83.6277 205.234 80.1391L206.28 80.6374L202.2 90.8043H168.727V89.7078H168.518Z" fill="#405E11"/>
<path d="M212.87 89.7079C214.858 89.6082 216.218 89.3092 216.95 88.9105C218.31 88.2128 219.251 86.917 219.774 85.1229L229.398 51.9311C224.377 51.9311 221.03 52.3298 219.356 53.0276C217.682 53.7253 215.799 55.9181 213.707 59.6061L212.557 59.4067L215.276 49.7383H250.423L247.494 60.0048L246.344 59.8054L246.553 57.6126C246.553 55.7188 246.135 54.2236 245.193 53.3266C244.252 52.3298 242.473 51.9311 239.754 51.9311H236.093L226.887 83.1294C226.678 83.8271 226.469 84.4251 226.364 84.9235C226.155 85.7209 226.051 86.319 226.051 86.8173C226.051 88.0134 226.469 88.8108 227.201 89.1099C228.038 89.4089 229.503 89.6082 231.908 89.6082V90.605H212.87V89.7079Z" fill="#405E11"/>
<path d="M286.302 53.3261C289.126 56.2166 290.59 59.7052 290.59 63.8916C290.59 71.1678 287.766 77.7463 282.013 83.5275C276.364 89.1092 270.192 91.9998 263.289 91.9998C259 91.9998 255.339 90.704 252.514 88.1125C249.69 85.521 248.226 81.833 248.226 77.1483C248.226 70.3704 251.05 63.9913 256.699 58.1105C262.347 52.13 268.519 49.1397 275.004 49.1397C279.711 49.0401 283.477 50.4355 286.302 53.3261ZM278.77 78.3444C282.013 72.2642 283.582 66.6825 283.582 61.3997C283.582 58.2101 282.85 55.7183 281.385 53.8245C279.921 52.0303 277.724 51.1332 274.795 51.1332C269.146 51.1332 264.335 54.7215 260.36 61.9978C257.012 68.0779 255.339 73.9587 255.339 79.5405C255.339 82.8297 256.071 85.3216 257.64 87.0161C259.209 88.7105 261.301 89.6076 264.021 89.6076C269.879 89.7073 274.795 85.9197 278.77 78.3444Z" fill="#405E11"/>
<path d="M325.947 49.239C327.202 49.4383 328.562 49.837 330.131 50.3354C331.282 50.7341 332.014 50.9334 332.432 51.0331C332.851 51.1328 333.269 51.2325 333.687 51.2325C334.733 51.2325 335.57 51.0331 336.093 50.6344C336.616 50.2357 337.139 49.7373 337.662 49.0396L338.708 49.239L335.466 61.5986L334.315 61.3993C334.001 58.9074 333.269 56.8142 332.223 55.3191C330.235 52.4286 326.993 51.0331 322.39 51.0331C316.219 51.0331 311.198 54.2227 307.327 60.5022C304.189 65.6853 302.62 70.968 302.62 76.5498C302.62 80.4371 303.771 83.6267 305.967 86.0189C308.164 88.4111 311.407 89.6072 315.486 89.6072C316.951 89.6072 318.52 89.4078 320.193 88.9094C321.867 88.4111 323.018 87.7133 323.645 86.7166C324.064 86.1185 324.482 84.9225 325.005 83.0286C325.319 81.8325 325.737 80.2378 326.261 78.1446L326.993 75.3537C326.993 75.1543 327.097 75.0547 327.097 74.8553C327.097 74.656 327.097 74.4566 327.097 74.3569C327.097 73.4599 326.784 72.8618 326.261 72.5628C325.633 72.2638 324.273 72.0644 322.076 71.7654V70.7687H339.65V71.7654C337.453 71.9648 335.884 72.3635 335.152 72.8618C334.42 73.3602 333.792 74.5563 333.269 76.2508L330.026 88.0124C328.353 89.1088 326.156 90.0059 323.436 90.8032C320.717 91.6006 317.892 91.9993 314.754 91.9993C308.478 91.9993 303.561 90.2052 300.005 86.6169C296.867 83.4273 295.402 79.54 295.402 74.8553C295.402 68.6755 297.808 62.9941 302.725 57.7113C308.164 51.8305 314.754 48.9399 322.599 48.9399C323.541 48.9399 324.691 49.0396 325.947 49.239Z" fill="#405E11"/>
<path d="M338.29 89.7077C340.173 89.4087 341.533 88.8106 342.265 87.8139C342.997 86.8171 344.043 84.3253 345.089 80.438L352.726 54.124C352.726 54.0243 352.621 53.6256 352.203 53.0275C351.784 52.4295 351.366 52.0308 350.947 51.7318C350.529 51.4327 350.11 51.2334 349.483 51.1337C348.96 51.034 348.123 50.9344 347.182 50.735V49.7383H357.747L371.241 80.737H371.45L378.04 56.8152C378.249 56.1174 378.354 55.4197 378.458 54.9213C378.563 54.3233 378.667 53.9246 378.667 53.6256C378.667 52.5292 378.144 51.7318 377.098 51.2334C376.471 50.9344 375.425 50.8347 373.96 50.735V49.7383H387.14V50.735C385.153 51.1337 383.793 51.8314 383.061 52.7285C382.329 53.6256 381.387 56.1174 380.236 60.0047L372.391 86.8171C372.182 87.7142 371.973 88.3123 371.868 88.711C371.764 89.1097 371.45 90.1064 371.031 91.7012H369.776L354.818 57.4132H354.608L347.286 83.5279C347.182 84.0263 346.972 84.5246 346.868 85.2224C346.763 85.9201 346.658 86.4184 346.658 86.8171C346.658 88.0132 347.182 88.8106 348.332 89.2093C348.96 89.5084 350.006 89.608 351.366 89.7077V90.7044H338.186V89.7077H338.29Z" fill="#405E11"/>
<path d="M383.479 89.7078C385.048 89.6082 386.094 89.3091 386.617 88.9104C387.558 88.3124 388.29 87.0166 388.813 85.1228L396.868 57.3136C397.077 56.4165 397.286 55.6191 397.495 55.021C397.6 54.423 397.705 53.9246 397.705 53.4262C397.705 52.4295 397.286 51.7318 396.554 51.3331C395.822 50.9344 394.462 50.735 392.579 50.735V49.7383H425.32L423.228 59.3071L421.868 59.2074C421.973 58.6093 421.973 58.0113 421.973 57.4132C421.973 56.8152 421.973 56.6158 421.973 56.8152C421.973 54.722 421.241 53.4262 419.672 52.7285C418.103 52.1305 414.86 51.7318 409.943 51.7318C407.642 51.7318 406.282 51.8314 405.655 52.0308C405.027 52.2301 404.713 52.6288 404.504 53.3266L400.215 67.9787C405.968 67.7794 409.525 67.4804 410.676 66.982C411.826 66.4836 413.082 64.7892 414.441 61.8986L415.697 62.1976L411.199 76.7501L409.943 76.4511C410.153 75.255 410.257 74.4576 410.362 74.2583C410.362 73.9592 410.466 73.6602 410.466 73.3612C410.466 72.0654 409.943 71.1683 409.002 70.7696C407.956 70.3709 406.178 70.1716 403.563 70.1716H399.797L395.717 84.2257C395.613 84.6244 395.508 85.0231 395.403 85.4218C395.299 85.8205 395.299 86.1195 395.299 86.5182C395.299 87.216 395.508 87.6147 395.822 88.0134C396.449 88.6114 397.809 88.9104 399.797 88.9104C405.655 88.9104 409.943 88.3124 412.454 87.1163C414.964 85.9202 417.58 83.6277 420.09 80.1391L421.136 80.6374L417.057 90.8043H383.583V89.7078H383.479Z" fill="#405E11"/>
</svg>
